<svg width="246" height="182" viewBox="0 0 246 182" fill="none" xmlns="http://www.w3.org/2000/svg">
<g opacity="0.4">
<g clip-path="url(#clip0_723_4033)">
<path fill-rule="evenodd" clip-rule="evenodd" d="M117.32 108.342H126.257V72.6904H117.32V108.342Z" fill="white"/>
<path fill-rule="evenodd" clip-rule="evenodd" d="M148.448 100.834C154.127 100.834 158.3 95.9682 158.3 90.5059C158.3 85.0432 154.104 80.2236 148.448 80.2236C142.769 80.2236 138.574 85.0432 138.574 90.5059C138.574 95.9682 142.769 100.834 148.448 100.834ZM148.518 71.5479C159.227 71.5479 167.85 79.7645 167.85 90.4371C167.85 101.155 159.158 109.532 148.425 109.532C137.693 109.532 129.001 101.27 129.001 90.5748C129.001 79.9021 137.809 71.5479 148.518 71.5479ZM168.878 97.5606L177.078 95.6315C177.667 99.9154 180.815 101.463 184.122 101.463C187.407 101.463 188.608 99.5342 188.608 98.0314C188.608 96.8203 187.905 95.6315 185.504 95.1607L180.498 94.196C174.518 93.0523 170.282 89.329 170.282 83.6096C170.282 76.7914 176.557 71.9916 183.647 71.9916C192.776 71.9916 196.536 77.6437 197.193 82.3763L189.151 84.6191C188.721 81.7032 186.909 79.5952 183.602 79.5952C180.747 79.5952 179.388 81.4791 179.388 82.9144C179.388 84.1031 179.955 85.4714 182.084 85.8751L187.294 86.8619C194.112 88.1629 197.85 92.2896 197.85 97.6502C197.85 103.482 192.776 109.089 184.077 109.089C174.971 109.089 170.078 104.356 168.878 97.5606Z" fill="white"/>
<path fill-rule="evenodd" clip-rule="evenodd" d="M57.618 108.342H48L63.904 72.6904H73.568L57.618 108.342Z" fill="#94A3B8"/>
<path fill-rule="evenodd" clip-rule="evenodd" d="M91.448 72.6685H80.37L92.472 90.1125L85.738 99.8885L73.606 72.6895H63.941L79.892 108.342H90.207L97.742 97.0405L105.188 108.342H115.616L103.169 90.1125L115.115 72.6685H104.185L97.742 83.2285L91.448 72.6685Z" fill="white"/>
</g>
</g>
<defs>
<clipPath id="clip0_723_4033">
<rect width="149.85" height="37.9846" fill="white" transform="translate(48 71.5479)"/>
</clipPath>
</defs>
</svg>
