<svg width="334" height="182" viewBox="0 0 334 182" fill="none" xmlns="http://www.w3.org/2000/svg">
<g opacity="0.4">
<path d="M81.36 109.54V107.08H54.66V90.52H80.46V88.12H54.66V71.8H81.36V69.34H51.96V109.54H81.36ZM89.078 109.54L101.858 96.1H102.038L114.878 109.54H118.118L104.018 94.66V94.42L118.118 80.08H114.938L102.158 93.04H101.918L89.078 80.08H85.898L99.938 94.54V94.72L85.898 109.54H89.078ZM126.787 119.74V100.9C128.227 106.48 133.267 110.14 139.687 110.14C149.227 110.14 154.507 103.6 154.507 94.78C154.507 86.02 149.167 79.48 139.927 79.48C132.967 79.48 128.287 83.26 126.907 88.42H126.427V80.08H124.087V119.74H126.787ZM126.787 95.38V94.78C126.787 86.8 131.587 81.94 139.447 81.94C146.527 81.94 151.807 85.18 151.807 94.78C151.807 104.44 146.647 107.68 139.267 107.68C131.887 107.68 126.787 103 126.787 95.38ZM164.08 109.54V93.88C164.08 86.26 167.14 81.82 173.8 81.82C179.5 81.82 181.84 84.64 181.84 90.28V92.26H184.48V90.04C184.48 84.64 181.36 79.48 174.52 79.48C168.28 79.48 164.86 83.5 163.96 88.12H163.72V80.08H161.38V109.54H164.08ZM204.617 110.14C212.417 110.14 218.477 106 218.477 99.94V99.58H215.837V99.94C215.837 104.86 212.117 107.8 204.557 107.8C196.037 107.8 192.197 103.06 191.957 95.74H218.597C218.777 95.08 218.897 94.12 218.897 93.04C218.897 84.4 212.837 79.48 204.617 79.48C195.137 79.48 189.377 86.02 189.377 94.78C189.377 103.72 195.197 110.14 204.617 110.14ZM204.557 81.76C211.997 81.76 216.437 85.54 216.437 92.44C216.437 92.92 216.437 93.34 216.377 93.82H191.957C192.197 86.5 196.037 81.76 204.557 81.76ZM238.718 110.14C245.858 110.14 251.318 107.5 251.318 101.92C251.318 97.18 247.718 95.14 241.958 94.3L234.458 93.16C229.178 92.38 227.378 91.12 227.378 87.64C227.378 83.5 230.378 81.76 237.278 81.76C245.498 81.76 248.258 84.52 248.258 89.62V89.92H250.898V89.8C250.898 82.96 245.378 79.48 237.338 79.48C229.898 79.48 224.738 82.42 224.738 87.64C224.738 92.5 228.218 94.42 233.378 95.2L241.118 96.34C246.518 97.18 248.678 98.44 248.678 102.04C248.678 106 246.038 107.8 238.718 107.8C230.738 107.8 227.378 105.7 227.378 100V99.7H224.738V99.82C224.738 106.6 229.958 110.14 238.718 110.14ZM271.09 110.14C278.23 110.14 283.69 107.5 283.69 101.92C283.69 97.18 280.09 95.14 274.33 94.3L266.83 93.16C261.55 92.38 259.75 91.12 259.75 87.64C259.75 83.5 262.75 81.76 269.65 81.76C277.87 81.76 280.63 84.52 280.63 89.62V89.92H283.27V89.8C283.27 82.96 277.75 79.48 269.71 79.48C262.27 79.48 257.11 82.42 257.11 87.64C257.11 92.5 260.59 94.42 265.75 95.2L273.49 96.34C278.89 97.18 281.05 98.44 281.05 102.04C281.05 106 278.41 107.8 271.09 107.8C263.11 107.8 259.75 105.7 259.75 100V99.7H257.11V99.82C257.11 106.6 262.33 110.14 271.09 110.14Z" fill="white"/>
</g>
</svg>
