<svg width="181" height="181" viewBox="0 0 181 181" fill="none" xmlns="http://www.w3.org/2000/svg">
<g opacity="0.4">
<path d="M132.96 117.785C127.519 117.648 123.302 118.2 119.766 119.719C118.745 120.132 117.113 120.133 116.977 121.445C117.521 121.997 117.589 122.895 118.065 123.654C118.882 125.034 120.309 126.899 121.602 127.866C123.03 128.97 124.459 130.074 125.954 131.041C128.607 132.698 131.6 133.664 134.184 135.321C135.681 136.287 137.177 137.531 138.673 138.566C139.421 139.118 139.897 140.016 140.85 140.361V140.154C140.373 139.532 140.237 138.635 139.761 137.945C139.082 137.254 138.401 136.633 137.721 135.942C135.748 133.25 133.3 130.903 130.648 128.97C128.471 127.451 123.71 125.38 122.826 122.825C122.826 122.825 122.758 122.757 122.69 122.688C124.186 122.549 125.954 121.997 127.383 121.583C129.695 120.961 131.804 121.1 134.184 120.478C135.272 120.202 136.361 119.857 137.449 119.511V118.89C136.225 117.648 135.341 115.991 134.048 114.817C130.58 111.779 126.771 108.811 122.826 106.325C120.718 104.944 117.997 104.047 115.752 102.873C114.937 102.459 113.576 102.252 113.1 101.561C111.876 100.043 111.195 98.0409 110.312 96.2458C108.34 92.4482 106.435 88.2372 104.734 84.2334C103.511 81.5406 102.762 78.8478 101.266 76.3629C94.2607 64.6263 86.6432 57.5154 74.9453 50.5421C72.4285 49.0926 69.436 48.4711 66.2394 47.712C64.5397 47.6426 62.8388 47.5049 61.1387 47.4355C60.0504 46.9521 58.962 45.6407 58.0098 45.0193C54.1338 42.5336 44.1352 37.1492 41.2787 44.2601C39.4421 48.7473 43.9995 53.1655 45.5632 55.4444C46.7203 57.032 48.216 58.8268 49.0322 60.622C49.5084 61.795 49.644 63.0386 50.1202 64.2811C51.2089 67.3179 52.2284 70.7016 53.6572 73.5324C54.4055 74.982 55.2213 76.5006 56.1736 77.8125C56.7178 78.5716 57.6697 78.9172 57.8741 80.1596C56.9222 81.5406 56.8538 83.6119 56.3093 85.3377C53.8609 93.1391 54.8136 102.804 58.2818 108.534C59.3698 110.26 61.9546 114.058 65.4232 112.608C68.4841 111.365 67.8039 107.43 68.6874 103.978C68.8922 103.149 68.7562 102.597 69.1639 102.045V102.183C70.1162 104.116 71.0681 105.98 71.9524 107.913C74.061 111.296 77.7333 114.817 80.7939 117.165C82.4267 118.407 83.7187 120.547 85.7593 121.307V121.099H85.6229C85.2148 120.478 84.6026 120.202 84.0588 119.718C82.8349 118.476 81.4741 116.957 80.5222 115.576C77.6661 111.71 75.1489 107.43 72.9047 103.011C71.8167 100.871 70.864 98.5239 69.9802 96.3839C69.5717 95.5545 69.5717 94.3125 68.8919 93.8986C67.8715 95.4172 66.3755 96.7291 65.6273 98.5929C64.3357 101.561 64.1992 105.221 63.7231 109.017C63.451 109.087 63.5867 109.017 63.4506 109.156C61.2747 108.603 60.5265 106.325 59.7099 104.392C57.6693 99.4905 57.3292 91.6201 59.0981 85.9591C59.5742 84.5091 61.6148 79.9529 60.7986 78.572C60.3905 77.2601 59.0297 76.5006 58.2818 75.4653C57.398 74.1535 56.4453 72.4971 55.8335 71.0468C54.201 67.1806 53.3848 62.9002 51.6166 59.034C50.8004 57.2388 49.3727 55.3753 48.216 53.7182C46.924 51.8544 45.4956 50.5421 44.4753 48.3331C44.1356 47.574 43.659 46.3311 44.2032 45.5026C44.3392 44.9502 44.6109 44.7435 45.1555 44.6054C46.0397 43.8455 48.5565 44.8121 49.44 45.2264C51.9567 46.2613 54.065 47.2287 56.1736 48.6783C57.1255 49.3687 58.1458 50.6806 59.3698 51.0258H60.7982C62.9749 51.5088 65.4228 51.1639 67.4634 51.785C71.0685 52.9583 74.3327 54.6845 77.2576 56.5487C86.1675 62.2787 93.5121 70.4254 98.4776 80.1596C99.2938 81.7469 99.6336 83.1977 100.382 84.854C101.811 88.2372 103.579 91.6891 105.006 95.0029C106.435 98.2473 107.795 101.561 109.835 104.254C110.856 105.703 114.936 106.463 116.773 107.223C118.133 107.844 120.242 108.397 121.466 109.156C123.778 110.605 126.09 112.263 128.267 113.85C129.355 114.679 132.756 116.405 132.96 117.785Z" fill="white"/>
<path d="M63.5863 57.7908C62.4303 57.7908 61.6145 57.9297 60.7982 58.1364V58.2745H60.9343C61.4788 59.3792 62.4303 60.1387 63.1101 61.105C63.6547 62.2093 64.1304 63.3144 64.675 64.4192C64.7426 64.3497 64.8106 64.2811 64.8106 64.2811C65.7633 63.5902 66.2391 62.4859 66.2391 60.8288C65.8309 60.3459 65.7629 59.8625 65.4228 59.3792C65.0151 58.6884 64.1304 58.3435 63.5863 57.7908Z" fill="white"/>
</g>
</svg>
