<svg width="181" height="181" viewBox="0 0 181 181" fill="none" xmlns="http://www.w3.org/2000/svg">
<g opacity="0.4">
<path d="M91 99.3563C95.8691 99.3563 99.8163 95.4092 99.8163 90.5401C99.8163 85.671 95.8691 81.7239 91 81.7239C86.131 81.7239 82.1838 85.671 82.1838 90.5401C82.1838 95.4092 86.131 99.3563 91 99.3563Z" fill="white"/>
<path d="M91 108.603C117.127 108.603 138.307 100.516 138.307 90.5401C138.307 80.5644 117.127 72.4775 91 72.4775C64.8733 72.4775 43.6934 80.5644 43.6934 90.5401C43.6934 100.516 64.8733 108.603 91 108.603Z" stroke="white" stroke-width="5"/>
<path d="M75.3573 99.5713C88.4207 122.198 106.014 136.497 114.653 131.509C123.292 126.521 119.706 104.135 106.643 81.5088C93.5792 58.8824 75.9858 44.5835 67.3466 49.5713C58.7075 54.5591 62.294 76.9449 75.3573 99.5713Z" stroke="white" stroke-width="5"/>
<path d="M75.3574 81.5087C62.294 104.135 58.7075 126.521 67.3467 131.509C75.9858 136.497 93.5792 122.198 106.643 99.5713C119.706 76.9449 123.292 54.5591 114.653 49.5713C106.014 44.5834 88.4207 58.8823 75.3574 81.5087Z" stroke="white" stroke-width="5"/>
</g>
</svg>
