<svg width="181" height="182" viewBox="0 0 181 182" fill="none" xmlns="http://www.w3.org/2000/svg">
<g opacity="0.4">
<g clip-path="url(#clip0_723_4034)">
<path d="M121.333 72.4369V108.488L90.7188 126.437L90.4375 126.693V140.282L90.7188 140.538L133.822 115.642V65.4385H133.411L121.258 72.2354V72.5166" fill="#475569"/>
<path d="M60 108.743L90.7687 126.563V140.54L47.3078 115.54V65.54H47.7453L59.8734 72.5916L60.0016 73.0025V108.899" fill="#94A3B8"/>
<path d="M60 72.9244L47.1797 65.54L90.6172 40.54L133.82 65.4369L121.333 72.4369L90.5625 54.9244L59.9484 72.8729" fill="white"/>
<path d="M90.1797 104.618L89.8469 104.285V90.7729L90.1797 90.5933V90.2604L101.769 83.4917H102.128V97.4401L90.1031 104.568" fill="#475569"/>
<path d="M77.9484 97.951V83.4619H78.2813L90.0781 90.3338V104.642L77.8469 97.9494" fill="#94A3B8"/>
<path d="M89.975 76.3603L77.95 83.4884L90.1797 90.5399L102.205 83.5149L89.9734 76.2837" fill="white"/>
<path d="M75.2031 113.462L74.8703 113.129V99.5901L75.2031 99.4104V99.0776L86.7922 92.3088H87.1516V106.257L75.1266 113.385" fill="#475569"/>
<path d="M62.975 106.771V92.2837H63.3078L75.1047 99.1556V113.463L62.9766 106.771" fill="#94A3B8"/>
<path d="M75.025 85.1808L62.9734 92.2839L75.2047 99.412L87.2297 92.387L74.9984 85.1558" fill="white"/>
<path d="M106.231 113.796L105.898 113.463V99.9243L106.231 99.7446V99.4118L117.82 92.6431H118.18V106.592L106.155 113.72" fill="#475569"/>
<path d="M94 107.103V92.6182H94.3844L106.181 99.49V113.798L93.9484 107.103" fill="#94A3B8"/>
<path d="M106.025 85.4119L94 92.54L106.231 99.6681L118.256 92.6431L106.025 85.4119Z" fill="white"/>
<path d="M91.2562 122.618L90.9234 122.285V108.743L91.2562 108.563V108.231L102.845 101.462H103.205V115.41L91.1797 122.538" fill="#475569"/>
<path d="M79 115.924V101.462H79.3328L91.1297 108.334V122.642L79.0016 115.923" fill="#94A3B8"/>
<path d="M91.0516 94.3369L79 101.462L91.2563 108.487L103.281 101.462L91.05 94.3337" fill="white"/>
<path d="M90.1797 85.4119L89.8469 85.0791V71.5916L90.1797 71.4119V71.0791L101.769 64.3103H102.128V78.2587L90.1797 85.4119Z" fill="#475569"/>
<path d="M77.9484 78.7712V64.2837H78.2813L90.0781 71.1556V85.4118L77.8469 78.7196" fill="#94A3B8"/>
<path d="M89.975 57.2073L77.95 64.3354L90.1812 71.4635L102.206 64.4385L89.975 57.2073Z" fill="white"/>
<path d="M75.2031 94.2588L74.8703 93.926V80.2854L75.2031 80.1057V79.7729L86.7922 73.0042H87.1516V86.9526L75.1266 94.0807" fill="#475569"/>
<path d="M62.975 87.5916V73.1025H63.3078L75.1047 79.9744V94.2822L62.9766 87.59" fill="#94A3B8"/>
<path d="M75.025 66.001L62.9734 73.1041L75.2047 80.2838L87.2297 73.2588L74.9984 66.0275" fill="white"/>
<path d="M106.231 94.5916L105.898 94.2588V80.7432L106.231 80.5635V80.2307L117.82 73.4619H118.18V87.4104L106.155 94.5385" fill="#475569"/>
<path d="M94 87.9775V73.4385H94.3844L106.128 80.2854V94.5932L94 87.9775Z" fill="#94A3B8"/>
<path d="M106.025 66.3369L94 73.4619L106.231 80.59L118.256 73.565L106.025 66.3337" fill="white"/>
<path d="M91.2562 103.36L90.9234 103.028V89.5667L91.2562 89.387V89.0542L102.845 82.2854H103.205V96.2338L91.2562 103.36Z" fill="#475569"/>
<path d="M79 96.7432V82.2588H79.3328L91.1297 89.1307V103.362L79 96.7432Z" fill="#94A3B8"/>
<path d="M91.0516 75.1558L79 82.2589L91.2312 89.387L103.256 82.362L91.0531 75.1589" fill="white"/>
</g>
</g>
<defs>
<clipPath id="clip0_723_4034">
<rect width="100" height="100" fill="white" transform="translate(40.5 40.54)"/>
</clipPath>
</defs>
</svg>
