<svg width="181" height="181" viewBox="0 0 181 181" fill="none" xmlns="http://www.w3.org/2000/svg">
<g opacity="0.4">
<path d="M91 60.5481C77.6663 60.5481 69.3331 67.2131 65.9994 80.5418C71 73.8768 76.8335 71.3784 83.4997 73.044C87.3036 73.9944 90.0221 76.7541 93.032 79.8078C97.9339 84.7821 103.607 90.5393 116.001 90.5393C129.333 90.5393 137.668 83.8743 141 70.5443C136.001 77.2093 130.167 79.709 123.5 78.0434C119.697 77.093 116.979 74.3332 113.969 71.2796C109.067 66.3052 103.392 60.5481 91 60.5481ZM65.9994 90.5393C52.6669 90.5393 44.3325 97.2043 41 110.534C45.9994 103.869 51.8328 101.37 58.5003 103.036C62.303 103.988 65.0215 106.747 68.0314 109.799C72.9332 114.773 78.6079 120.532 91 120.532C104.334 120.532 112.667 113.867 116.001 100.537C111 107.202 105.167 109.701 98.5003 108.035C94.6964 107.085 91.9779 104.324 88.968 101.272C84.0662 96.2977 78.3928 90.5393 65.9994 90.5393Z" fill="white"/>
</g>
</svg>
