<svg width="845" height="721" viewBox="0 0 845 721" fill="none" xmlns="http://www.w3.org/2000/svg">
<g style="mix-blend-mode:soft-light" opacity="0.6">
<path d="M541.944 637.408C543.84 656.333 554.749 671.546 574.67 683.047C587.722 690.583 599.914 694.056 611.245 693.466C622.878 693.941 633.414 691.555 642.855 686.308C652.983 681.457 662.166 674.278 670.403 664.769C678.254 655.93 685.268 646.161 691.445 635.463C707.658 607.38 717.604 577.462 721.283 545.709C725.648 514.352 724.347 483.289 717.381 452.522C710.029 422.424 697.119 394.019 678.65 367.31C660.483 341.665 636.631 320.316 607.092 303.262C583.05 289.381 557.979 282.039 531.882 281.235C505.398 281.101 479.365 282.564 453.784 285.625C428.89 289.082 405.455 291.599 383.479 293.175C361.804 295.817 343.753 292.973 329.328 284.644C318.892 278.619 311.107 271.787 305.971 264.146C311.038 302.077 339.206 334.908 378.512 345.043L431.049 358.59C469.466 368.496 497.077 396.3 510.57 435.802C524.063 475.303 527.497 497.442 529.822 514.832C532.148 532.221 536.312 576.654 536.312 576.654C537.749 601.244 539.661 619.151 541.944 637.408Z" fill="white"/>
<path d="M512.396 483.817L500.264 438.586C490.874 403.578 463.241 376.404 428.075 367.595L375.405 354.402C306.348 332.88 288.269 265.828 296.543 212.006C298.471 197.575 301.679 182.511 306.167 166.814C310.26 151.804 312.584 136.687 313.139 121.463C313.695 106.239 310.662 91.6866 304.039 77.8047C298.102 64.319 285.528 52.0302 266.317 40.9384C252.594 33.0156 239.491 29.5654 227.008 30.5877C215.211 32.0062 204.337 35.7865 194.387 41.9288C184.041 48.7569 174.817 57.604 166.713 68.4701C157.924 78.9401 150.164 90.0043 143.433 101.663C127.199 129.78 117.286 162.004 113.693 198.333C110.1 234.663 112.405 270.284 120.609 305.195C129.104 341.188 142.916 374.308 162.046 404.555C181.467 435.884 205.586 459.868 234.403 476.505C254.301 487.993 272.893 494.613 290.179 496.363C307.069 498.8 322.891 498.333 337.644 494.964C352.001 492.28 365.923 487.974 379.409 482.045C392.896 476.115 405.644 470.674 417.652 465.72C429.951 461.848 442.342 459.401 454.825 458.378C466.912 458.042 479.131 461.439 491.481 468.569C499.621 473.269 506.592 478.351 512.396 483.817Z" fill="white"/>
</g>
</svg>
