<svg width="845" height="721" viewBox="0 0 845 721" fill="none" xmlns="http://www.w3.org/2000/svg">
<g style="mix-blend-mode:soft-light" opacity="0.2">
<path d="M122.36 395.161C105.023 402.981 86.3931 401.14 66.4719 389.639C53.4201 382.103 44.3167 373.281 39.1617 363.173C32.9338 353.337 29.7318 343.019 29.5556 332.219C28.6925 321.022 30.3188 309.48 34.4346 297.592C38.1643 286.373 43.1174 275.414 49.294 264.716C65.5074 236.634 86.4442 213.061 112.105 193.999C137.078 174.54 164.629 160.135 194.757 150.785C224.499 142.103 255.553 139.081 287.919 141.72C319.211 144.631 349.626 154.614 379.165 171.667C403.207 185.549 422.101 203.589 435.846 225.789C449.204 248.657 460.953 271.933 471.093 295.617C480.546 318.905 490.084 340.459 499.707 360.279C508.257 380.371 519.745 394.581 534.17 402.91C544.606 408.935 554.416 412.261 563.601 412.888C528.218 427.465 485.702 419.487 457.271 390.514L419.271 351.79C391.484 323.472 353.599 313.463 312.643 321.528C271.687 329.594 250.798 337.689 234.575 344.37C218.352 351.051 177.791 369.661 177.791 369.661C155.776 380.711 139.312 388.009 122.36 395.161Z" fill="white"/>
<path d="M270.147 343.955L315.385 331.845C350.397 322.473 387.748 332.817 412.959 358.868L450.719 397.885C503.887 446.929 570.995 429.06 613.469 394.983C625.003 386.098 636.444 375.788 647.794 364.052C658.747 353.003 670.677 343.432 683.583 335.339C696.49 327.246 710.609 322.596 725.943 321.391C740.59 319.789 757.52 324.534 776.731 335.626C790.454 343.549 799.993 353.171 805.349 364.493C810.019 375.419 812.182 386.726 811.838 398.414C811.098 410.788 808.048 423.2 802.69 435.651C798.017 448.498 792.315 460.75 785.584 472.409C769.351 500.526 746.401 525.223 716.735 546.5C687.069 567.776 655.068 583.59 620.732 593.941C585.314 604.581 549.725 609.179 513.965 607.735C477.123 606.581 444.293 597.685 415.476 581.047C395.578 569.559 380.549 556.768 370.39 542.673C359.835 529.264 352.328 515.329 347.87 500.868C343.015 487.092 339.784 472.882 338.176 458.238C336.567 443.594 334.906 429.833 333.192 416.957C330.396 404.37 326.32 392.415 320.963 381.093C315.211 370.457 306.16 361.574 293.81 354.443C285.67 349.744 277.783 346.248 270.147 343.955Z" fill="white"/>
</g>
</svg>
