<svg width="284" height="82" viewBox="0 0 284 82" fill="none" xmlns="http://www.w3.org/2000/svg">
<path d="M66.1362 41.158C67.3343 42.8213 69.1743 43.6529 71.6561 43.6529C73.2821 43.6529 74.6086 43.3203 75.6355 42.655C76.748 42.0728 77.6038 41.2828 78.2029 40.2848C78.8875 39.2869 79.3582 38.1226 79.615 36.792C79.8717 35.5445 80.0001 34.2555 80.0001 32.9249C80.0001 29.432 79.3154 26.1055 77.9462 22.9453C76.6625 19.7851 74.8653 16.9576 72.5546 14.4627C70.244 12.0509 67.5055 10.0966 64.339 8.59967C61.2581 7.18589 57.8778 6.479 54.1978 6.479C51.2026 6.479 48.464 7.14431 45.9822 8.47492C43.5004 9.88869 41.147 11.4272 38.9219 13.0905C36.7824 14.7537 34.7285 16.2507 32.7602 17.5813C30.8774 18.9951 29.0375 19.7019 27.2403 19.7019C25.9402 19.7019 24.8442 19.4839 23.9521 19.0477C26.4718 22.3132 30.8747 23.8587 35.0941 22.6872L40.7337 21.1214C44.8577 19.9764 48.9374 21.0831 52.329 24.0412C55.7207 26.9994 57.2358 28.8796 58.3912 30.3765C59.5466 31.8735 62.3326 35.794 62.3326 35.794C63.7934 38.0105 64.9381 39.5779 66.1362 41.158Z" fill="white"/>
<path d="M55.0898 28.422L51.5162 24.856C48.7504 22.0961 44.7026 21.0494 40.9416 22.1217L35.3087 23.7277C27.6952 25.4392 22.3888 20.158 20.2585 14.6917C19.6601 13.2417 19.1473 11.6637 18.7199 9.95775C18.2925 8.3371 17.6941 6.80175 16.9248 5.3517C16.1555 3.90165 15.087 2.70749 13.7194 1.76922C12.4372 0.830951 10.5994 0.361816 8.20598 0.361816C6.4964 0.361816 5.086 0.745654 3.97477 1.51333C2.94902 2.281 2.13697 3.21927 1.53862 4.32813C0.940268 5.5223 0.555613 6.8444 0.384655 8.29445C0.128218 9.74451 0 11.1946 0 12.6446C0 16.1418 0.812049 19.6816 2.43615 23.2641C4.06025 26.8466 6.19722 30.0452 8.84707 32.86C11.5824 35.7601 14.6596 38.1058 18.0788 39.8971C21.5834 41.7736 25.1308 42.7119 28.7209 42.7119C31.1998 42.7119 33.294 42.328 35.0036 41.5604C36.7132 40.878 38.1663 39.9824 39.363 38.8735C40.5597 37.8499 41.6282 36.6984 42.5685 35.419C43.5088 34.1395 44.4063 32.9453 45.2611 31.8365C46.2014 30.8129 47.2271 29.9173 48.3383 29.1496C49.4495 28.4672 50.7745 28.126 52.3131 28.126C53.3271 28.126 54.2527 28.2247 55.0898 28.422Z" fill="white"/>
<path d="M221.061 7.77197C223.978 7.77197 226.343 9.97324 226.343 12.6886V12.6886C226.343 15.404 223.978 17.6053 221.061 17.6053V17.6053C218.144 17.6053 215.779 15.404 215.779 12.6886V12.6886C215.779 9.97324 218.144 7.77197 221.061 7.77197V7.77197Z" fill="white"/>
<path d="M212.268 13.224C208.741 15.3328 206.793 18.9054 206.793 23.4388C206.793 30.9103 212.084 35.7721 221.017 35.7721C230.181 35.7721 235.396 30.9103 235.396 23.4388C235.396 18.8975 233.469 15.3203 229.9 13.213C229.731 15.5623 228.506 17.6419 226.663 19.0423C227.436 19.9462 227.727 21.3411 227.727 23.4388C227.727 28.1934 226.232 29.3373 221.017 29.3373C215.803 29.3373 214.461 28.1934 214.461 23.4388C214.461 21.3255 214.726 19.9255 215.478 19.0222C213.653 17.6243 212.44 15.5577 212.268 13.224Z" fill="white"/>
<path d="M121.075 28.0146C121.075 32.1258 117.701 35.7721 109.036 35.7721C101.176 35.7721 96.3834 33.1625 96.3834 27.0852V26.8707H103.592V27.6214C103.592 29.2301 104.205 29.6591 109.036 29.6591C113.407 29.6591 113.867 29.3373 113.867 28.2649C113.867 27.4069 113.369 27.0494 111.26 26.7992L103.208 25.7982C98.4155 25.1905 96 22.7953 96 18.9345C96 15.1093 99.1824 11.1055 108.461 11.1055C116.628 11.1055 120.539 14.4301 120.539 19.7924V20.0069H113.33V19.4707C113.33 17.7547 112.525 17.1828 107.694 17.1828C104.013 17.1828 103.208 17.6475 103.208 18.6842C103.208 19.4349 103.668 19.7924 105.049 19.9712L113.1 21.0794C119.388 21.9374 121.075 24.9402 121.075 28.0146Z" fill="white"/>
<path d="M147.132 29.3731V35.4146H124.319V11.463H147.132V17.5045H131.527V20.3644H146.557V26.3702H131.527V29.3731H147.132Z" fill="white"/>
<path fill-rule="evenodd" clip-rule="evenodd" d="M157.923 35.4146V27.2639H160.875C163.674 27.2639 164.441 27.7644 165.361 29.5518L168.429 35.4146H176.749L173.566 29.4088C172.608 27.5857 171.764 26.4059 169.119 25.7625V25.405C174.027 24.833 176.059 22.5808 176.059 18.7915C176.059 14.1084 172.493 11.463 165.706 11.463H150.715V35.4146H157.923ZM157.923 17.5045H165.63C167.739 17.5045 168.505 17.9692 168.505 19.8639C168.505 21.9016 167.739 22.2591 165.63 22.2591H157.923V17.5045Z" fill="white"/>
<path d="M203.933 28.0146C203.933 32.1258 200.558 35.7721 191.893 35.7721C184.033 35.7721 179.24 33.1625 179.24 27.0852V26.8707H186.449V27.6214C186.449 29.2301 187.062 29.6591 191.893 29.6591C196.264 29.6591 196.724 29.3373 196.724 28.2649C196.724 27.4069 196.226 27.0494 194.117 26.7992L186.065 25.7982C181.273 25.1905 178.857 22.7953 178.857 18.9345C178.857 15.1093 182.039 11.1055 191.318 11.1055C199.485 11.1055 203.396 14.4301 203.396 19.7924V20.0069H196.187V19.4707C196.187 17.7547 195.382 17.1828 190.551 17.1828C186.87 17.1828 186.065 17.6475 186.065 18.6842C186.065 19.4349 186.525 19.7924 187.906 19.9712L195.957 21.0794C202.245 21.9374 203.933 24.9402 203.933 28.0146Z" fill="white"/>
<path d="M257.179 25.1547L254.111 35.4146H243.414L238.046 11.463H246.098L248.245 23.6533L248.935 29.0514H249.434L250.469 23.6533L253.92 11.463H264.77L267.914 23.6533L268.835 29.0514H269.333L270.1 23.6533L272.515 11.463H280.414L274.547 35.4146H263.85L261.166 25.1547L259.479 17.6475H258.981L257.179 25.1547Z" fill="white"/>
<path d="M0.672 68.0964C0.672 69.7604 1.648 70.8484 3.536 71.2804L5.44 71.7124C6.544 71.9684 7.04 72.5444 7.04 73.4564C7.04 74.6084 6.064 75.3284 4.528 75.3284C3.072 75.3284 2.144 74.6244 2.112 73.5204H0.512C0.608 75.5044 2.176 76.7364 4.528 76.7364C6.992 76.7364 8.608 75.4084 8.608 73.3284C8.608 71.6964 7.648 70.6724 5.76 70.2404L3.856 69.7924C2.768 69.5364 2.24 68.9764 2.24 68.0484C2.24 66.9124 3.184 66.1764 4.64 66.1764C5.936 66.1764 6.752 66.8484 6.832 68.0004H8.416C8.288 66.0004 6.864 64.7684 4.656 64.7684C2.272 64.7684 0.672 66.1124 0.672 68.0964ZM13.6984 76.7364C15.6344 76.7364 16.9464 75.7924 17.3304 74.1124H15.9224C15.6664 75.0084 14.8984 75.4884 13.7304 75.4884C12.2424 75.4884 11.3784 74.5764 11.2664 72.9284L17.3144 72.9124V72.3524C17.3144 70.0324 15.8584 68.4964 13.6344 68.4964C11.3624 68.4964 9.81038 70.1924 9.81038 72.6404C9.81038 75.0724 11.3944 76.7364 13.6984 76.7364ZM13.6344 69.7604C14.9624 69.7604 15.8104 70.6244 15.8104 71.9204H11.2984C11.4904 70.5444 12.3224 69.7604 13.6344 69.7604ZM23.4743 68.6564C23.1703 68.5924 22.9463 68.5604 22.6743 68.5604C21.6023 68.5604 20.8183 69.1044 20.4983 69.9204L20.4023 68.7364H18.9943V76.5444H20.4983V72.4004C20.4983 70.8964 21.3783 70.0324 22.8023 70.0324H23.4743V68.6564ZM24.2449 74.2724C24.2449 75.7604 25.4129 76.7364 27.2529 76.7364C29.1089 76.7364 30.3889 75.7924 30.3889 74.3044C30.3889 73.1364 29.7329 72.5284 28.4049 72.2084L27.0289 71.8724C26.2609 71.6804 25.8769 71.3284 25.8769 70.8004C25.8769 70.0804 26.4049 69.6644 27.3489 69.6644C28.2609 69.6644 28.7889 70.1604 28.8209 70.9444H30.2609C30.2289 69.4564 29.1089 68.4964 27.3969 68.4964C25.6689 68.4964 24.4529 69.4084 24.4529 70.8484C24.4529 72.0004 25.1089 72.6884 26.5009 73.0244L27.8769 73.3444C28.6929 73.5524 28.9489 73.8724 28.9489 74.4004C28.9489 75.1204 28.3409 75.5524 27.2849 75.5524C26.2929 75.5524 25.6849 75.0724 25.6849 74.2724H24.2449ZM31.5448 72.6244C31.5448 75.0404 33.2728 76.7364 35.6248 76.7364C37.9608 76.7364 39.6888 75.0404 39.6888 72.6244C39.6888 70.2084 37.9608 68.5124 35.6248 68.5124C33.2728 68.5124 31.5448 70.2084 31.5448 72.6244ZM33.0648 72.6244C33.0648 70.9924 34.1048 69.8564 35.6248 69.8564C37.1288 69.8564 38.1848 70.9924 38.1848 72.6244C38.1848 74.2564 37.1288 75.3924 35.6248 75.3924C34.1048 75.3924 33.0648 74.2564 33.0648 72.6244ZM42.6743 76.5444H44.1623L45.5223 72.3684C45.8103 71.4244 45.9543 70.9124 46.0343 70.5284C46.1143 70.9604 46.2743 71.5684 46.5303 72.3524L47.8903 76.5444H49.3142L51.9863 68.7204H50.4183L49.1063 72.7844C48.8823 73.4724 48.7383 74.0164 48.6103 74.6404C48.4823 74.0804 48.2263 73.1684 48.0983 72.7844L46.8023 68.7204H45.2663L43.9543 72.7844C43.7783 73.2964 43.5703 73.9524 43.4423 74.6404C43.2983 73.9524 43.1383 73.3604 42.9623 72.7844L41.6663 68.7204H40.1143L42.6743 76.5444ZM63.1065 76.7684C66.4345 76.7684 69.0265 74.1284 69.0265 70.7524C69.0265 67.3924 66.4345 64.7684 63.1065 64.7684C59.7945 64.7684 57.2025 67.3924 57.2025 70.7524C57.2025 74.1284 59.7785 76.7684 63.1065 76.7684ZM63.1065 75.7924C60.3385 75.7924 58.2425 73.6164 58.2425 70.7524C58.2425 67.9204 60.3545 65.7444 63.1065 65.7444C65.8745 65.7444 67.9865 67.9044 67.9865 70.7524C67.9865 73.6164 65.8905 75.7924 63.1065 75.7924ZM60.1465 70.7844C60.1465 72.6724 61.3625 73.9524 63.1705 73.9524C64.6265 73.9524 65.7625 73.0724 65.9865 71.7604H64.7705C64.5625 72.4804 64.0025 72.8804 63.1705 72.8804C62.0825 72.8804 61.3465 72.0324 61.3465 70.7684C61.3465 69.5204 62.1145 68.6564 63.2185 68.6564C64.0345 68.6564 64.5625 69.0404 64.7545 69.7764H65.9865C65.7625 68.4164 64.6905 67.5684 63.1865 67.5684C61.4105 67.5684 60.1465 68.8964 60.1465 70.7844ZM82.5909 76.5284V75.0724H77.2469L79.6469 72.9924C81.6949 71.2164 82.5109 70.0484 82.5109 68.4004C82.5109 66.1764 81.0229 64.7684 78.7029 64.7684C76.3509 64.7684 74.7829 66.3844 74.7349 68.8644H76.3029C76.3349 67.2164 77.2629 66.1764 78.6869 66.1764C80.0789 66.1764 80.9109 67.0404 80.9109 68.4964C80.9109 69.7284 80.3829 70.5124 78.5109 72.1284L74.7829 75.3444V76.5444L82.5909 76.5284ZM84.034 70.7684C84.034 74.3684 85.81 76.7524 88.802 76.7524C91.778 76.7524 93.554 74.3684 93.554 70.7684C93.554 67.1844 91.698 64.7524 88.802 64.7524C85.89 64.7524 84.034 67.1844 84.034 70.7684ZM85.586 70.7684C85.586 67.8884 86.77 66.1604 88.802 66.1604C90.834 66.1604 92.002 67.8884 92.002 70.7684C92.002 73.6164 90.834 75.3444 88.802 75.3444C86.77 75.3444 85.586 73.6164 85.586 70.7684ZM102.888 76.5284V75.0724H97.5438L99.9438 72.9924C101.992 71.2164 102.808 70.0484 102.808 68.4004C102.808 66.1764 101.32 64.7684 98.9998 64.7684C96.6478 64.7684 95.0798 66.3844 95.0318 68.8644H96.5998C96.6318 67.2164 97.5598 66.1764 98.9838 66.1764C100.376 66.1764 101.208 67.0404 101.208 68.4964C101.208 69.7284 100.68 70.5124 98.8078 72.1284L95.0798 75.3444V76.5444L102.888 76.5284ZM107.705 70.5604C109.545 70.5604 110.505 71.4884 110.505 72.8804C110.505 74.3684 109.529 75.3284 108.025 75.3284C106.569 75.3284 105.641 74.4484 105.641 72.9444H104.089C104.089 75.3444 105.721 76.7364 107.993 76.7364C110.345 76.7364 112.105 75.2484 112.105 72.9124C112.105 70.8324 110.617 69.5044 108.649 69.2644L111.817 66.2404V64.9764H104.633V66.3684H109.833L106.553 69.5204V70.5604H107.705ZM118.15 72.9924H134.758V71.6484H118.15V72.9924ZM142.043 76.5444L143.067 73.6644H147.931L148.971 76.5444H150.619L146.379 64.9764H144.635L140.411 76.5444H142.043ZM145.307 67.4724C145.387 67.2324 145.467 66.9604 145.499 66.8004C145.531 66.9764 145.611 67.2484 145.691 67.4724L147.467 72.3044H143.547L145.307 67.4724ZM153.437 76.5444V64.7684H151.933V76.5444H153.437ZM157.187 76.5444V64.7684H155.683V76.5444H157.187ZM165.6 76.5444V71.9684H168.56L170.72 76.5444H172.464L170.112 71.6644C171.552 71.2004 172.352 70.0484 172.352 68.4484C172.352 66.2884 170.88 64.9764 168.4 64.9764H164.032V76.5444H165.6ZM165.6 66.3844H168.4C169.84 66.3844 170.704 67.1204 170.704 68.4644C170.704 69.7924 169.872 70.5764 168.416 70.5764H165.6V66.3844ZM174.98 66.8644C175.524 66.8644 175.972 66.4164 175.972 65.8724C175.972 65.3124 175.524 64.8804 174.98 64.8804C174.436 64.8804 173.988 65.3124 173.988 65.8724C173.988 66.4164 174.436 66.8644 174.98 66.8644ZM174.244 76.5444H175.748V68.7204H174.244V76.5444ZM177.436 72.4324C177.436 74.6244 178.844 76.3364 181.068 76.3364C182.3 76.3364 183.324 75.7924 183.836 74.8804V76.4484C183.836 77.9364 182.876 78.8964 181.404 78.8964C180.092 78.8964 179.228 78.2244 179.036 77.0724H177.532C177.82 79.0564 179.276 80.2564 181.404 80.2564C183.804 80.2564 185.324 78.6884 185.324 76.2244V68.7204H183.98L183.868 70.0484C183.372 69.0724 182.396 68.4964 181.132 68.4964C178.86 68.4964 177.436 70.2244 177.436 72.4324ZM178.94 72.4004C178.94 70.9604 179.836 69.8084 181.34 69.8084C182.876 69.8084 183.772 70.8964 183.772 72.4004C183.772 73.9364 182.844 75.0244 181.324 75.0244C179.852 75.0244 178.94 73.8724 178.94 72.4004ZM188.998 76.5284V72.2724C188.998 70.9284 189.782 69.8724 191.238 69.8724C192.358 69.8724 193.11 70.5124 193.11 72.0964V76.5444H194.614V71.7604C194.614 69.7604 193.654 68.4964 191.654 68.4964C190.438 68.4964 189.494 69.0724 188.998 69.9204V64.7684H187.494V76.5284H188.998ZM198.905 76.5444V69.9844H200.441V68.7204H198.905V66.2724H197.401V68.7204H195.865V69.9844H197.401V76.5444H198.905ZM201.151 74.2724C201.151 75.7604 202.319 76.7364 204.159 76.7364C206.015 76.7364 207.295 75.7924 207.295 74.3044C207.295 73.1364 206.639 72.5284 205.311 72.2084L203.935 71.8724C203.167 71.6804 202.783 71.3284 202.783 70.8004C202.783 70.0804 203.311 69.6644 204.255 69.6644C205.167 69.6644 205.695 70.1604 205.727 70.9444H207.167C207.135 69.4564 206.015 68.4964 204.303 68.4964C202.575 68.4964 201.359 69.4084 201.359 70.8484C201.359 72.0004 202.015 72.6884 203.407 73.0244L204.783 73.3444C205.599 73.5524 205.855 73.8724 205.855 74.4004C205.855 75.1204 205.247 75.5524 204.191 75.5524C203.199 75.5524 202.591 75.0724 202.591 74.2724H201.151ZM215.162 76.5444V71.9684H218.122L220.282 76.5444H222.026L219.674 71.6644C221.114 71.2004 221.914 70.0484 221.914 68.4484C221.914 66.2884 220.442 64.9764 217.962 64.9764H213.594V76.5444H215.162ZM215.162 66.3844H217.962C219.402 66.3844 220.266 67.1204 220.266 68.4644C220.266 69.7924 219.434 70.5764 217.978 70.5764H215.162V66.3844ZM226.62 76.7364C228.556 76.7364 229.868 75.7924 230.252 74.1124H228.844C228.588 75.0084 227.82 75.4884 226.652 75.4884C225.164 75.4884 224.3 74.5764 224.188 72.9284L230.236 72.9124V72.3524C230.236 70.0324 228.78 68.4964 226.556 68.4964C224.284 68.4964 222.732 70.1924 222.732 72.6404C222.732 75.0724 224.316 76.7364 226.62 76.7364ZM226.556 69.7604C227.884 69.7604 228.732 70.6244 228.732 71.9204H224.22C224.412 70.5444 225.244 69.7604 226.556 69.7604ZM231.276 74.2724C231.276 75.7604 232.444 76.7364 234.284 76.7364C236.14 76.7364 237.42 75.7924 237.42 74.3044C237.42 73.1364 236.764 72.5284 235.436 72.2084L234.06 71.8724C233.292 71.6804 232.908 71.3284 232.908 70.8004C232.908 70.0804 233.436 69.6644 234.38 69.6644C235.292 69.6644 235.82 70.1604 235.852 70.9444H237.292C237.26 69.4564 236.14 68.4964 234.428 68.4964C232.7 68.4964 231.484 69.4084 231.484 70.8484C231.484 72.0004 232.14 72.6884 233.532 73.0244L234.908 73.3444C235.724 73.5524 235.98 73.8724 235.98 74.4004C235.98 75.1204 235.372 75.5524 234.316 75.5524C233.324 75.5524 232.716 75.0724 232.716 74.2724H231.276ZM242.464 76.7364C244.4 76.7364 245.712 75.7924 246.096 74.1124H244.688C244.432 75.0084 243.664 75.4884 242.496 75.4884C241.008 75.4884 240.144 74.5764 240.032 72.9284L246.08 72.9124V72.3524C246.08 70.0324 244.624 68.4964 242.4 68.4964C240.128 68.4964 238.576 70.1924 238.576 72.6404C238.576 75.0724 240.16 76.7364 242.464 76.7364ZM242.4 69.7604C243.728 69.7604 244.576 70.6244 244.576 71.9204H240.064C240.256 70.5444 241.088 69.7604 242.4 69.7604ZM252.24 68.6564C251.936 68.5924 251.712 68.5604 251.44 68.5604C250.368 68.5604 249.584 69.1044 249.264 69.9204L249.168 68.7364H247.76V76.5444H249.264V72.4004C249.264 70.8964 250.144 70.0324 251.568 70.0324H252.24V68.6564ZM256.077 76.5444H257.565L260.829 68.7204H259.261L257.517 73.0884C257.245 73.7764 256.989 74.4484 256.861 74.9604C256.733 74.4804 256.509 73.8244 256.237 73.0884L254.525 68.7204H252.925L256.077 76.5444ZM265.042 76.7364C266.978 76.7364 268.29 75.7924 268.674 74.1124H267.266C267.01 75.0084 266.242 75.4884 265.074 75.4884C263.586 75.4884 262.722 74.5764 262.61 72.9284L268.658 72.9124V72.3524C268.658 70.0324 267.202 68.4964 264.978 68.4964C262.706 68.4964 261.154 70.1924 261.154 72.6404C261.154 75.0724 262.738 76.7364 265.042 76.7364ZM264.978 69.7604C266.306 69.7604 267.154 70.6244 267.154 71.9204H262.642C262.834 70.5444 263.666 69.7604 264.978 69.7604ZM273.474 76.7364C274.722 76.7364 275.778 76.1924 276.29 75.1204L276.418 76.5444H277.762V64.7684H276.274V69.9844C275.746 69.0244 274.738 68.4964 273.538 68.4964C271.218 68.4964 269.826 70.2564 269.826 72.6564C269.826 75.0404 271.202 76.7364 273.474 76.7364ZM273.778 75.3764C272.242 75.3764 271.346 74.2244 271.346 72.6084C271.346 71.0084 272.242 69.8564 273.778 69.8564C275.314 69.8564 276.258 71.0084 276.258 72.6084C276.258 74.2404 275.314 75.3764 273.778 75.3764ZM281.052 76.7364C281.66 76.7364 282.188 76.2244 282.188 75.6164C282.188 74.9924 281.66 74.4804 281.052 74.4804C280.428 74.4804 279.9 74.9924 279.9 75.6164C279.9 76.2244 280.428 76.7364 281.052 76.7364Z" fill="#E2E8F0"/>
</svg>
