<svg width="1530" height="235" viewBox="0 0 1530 235" fill="none" xmlns="http://www.w3.org/2000/svg">
<path d="M347.215 221.177C353.505 230.115 363.165 234.584 376.194 234.584C384.731 234.584 391.695 232.797 397.086 229.221C402.927 226.093 407.42 221.847 410.565 216.485C414.159 211.122 416.63 204.865 417.978 197.715C419.326 191.011 420 184.084 420 176.933C420 158.163 416.406 140.287 409.217 123.305C402.478 106.322 393.043 91.1276 380.912 77.7204C368.781 64.7602 354.403 54.2579 337.78 46.2136C321.605 38.6162 303.858 34.8175 284.538 34.8175C268.813 34.8175 254.436 38.3927 241.406 45.5432C228.377 53.1406 216.021 61.4084 204.34 70.3465C193.107 79.2846 182.324 87.3289 171.991 94.4794C162.106 102.077 152.446 105.875 143.011 105.875C136.186 105.875 130.432 104.703 125.749 102.359C138.977 119.908 162.092 128.213 184.244 121.918L213.852 113.503C235.502 107.35 256.921 113.297 274.727 129.194C292.534 145.091 300.488 155.195 306.554 163.239C312.619 171.283 327.246 192.352 327.246 192.352C334.915 204.262 340.925 212.686 347.215 221.177Z" fill="url(#paint0_radial_235_8113)"/>
<path d="M289.222 152.735L270.46 133.572C255.94 118.741 234.688 113.116 214.944 118.879L185.371 127.509C145.4 136.706 117.541 108.326 106.357 78.9513C103.216 71.1589 100.523 62.679 98.2794 53.5116C96.0356 44.8025 92.8942 36.5518 88.8553 28.7594C84.8165 20.9671 79.2069 14.5498 72.0267 9.50774C65.2952 4.46563 55.6468 1.94458 43.0814 1.94458C34.1061 1.94458 26.7015 4.00726 20.8675 8.13262C15.4824 12.258 11.2191 17.3001 8.07776 23.2589C4.93641 29.6762 2.91697 36.7809 2.01944 44.5733C0.673147 52.3656 0 60.158 0 67.9503C0 86.7436 4.26326 105.766 12.7898 125.018C21.3163 144.269 32.5354 161.458 46.4471 176.585C60.8076 192.169 76.9631 204.775 94.9137 214.401C113.313 224.485 131.937 229.527 150.785 229.527C163.799 229.527 174.794 227.464 183.769 223.339C192.744 219.672 200.373 214.859 206.656 208.9C212.939 203.4 218.548 197.212 223.485 190.336C228.421 183.46 233.133 177.043 237.621 171.084C242.557 165.584 247.942 160.771 253.776 156.646C259.61 152.979 266.566 151.145 274.644 151.145C279.967 151.145 284.827 151.675 289.222 152.735Z" fill="url(#paint1_radial_235_8113)"/>
<path d="M1198.5 33C1214.79 33 1228 46.2076 1228 62.5C1228 78.7924 1214.79 92 1198.5 92C1182.21 92 1169 78.7924 1169 62.5C1169 46.2076 1182.21 33 1198.5 33Z" fill="#67E8F9"/>
<path d="M1149.39 65.7112C1129.69 78.3638 1118.81 99.7996 1118.81 127C1118.81 171.829 1148.36 201 1198.26 201C1249.44 201 1278.56 171.829 1278.56 127C1278.56 99.7522 1267.8 78.2892 1247.87 65.6451C1246.92 79.7413 1240.08 92.2185 1229.79 100.621C1234.11 106.044 1235.73 114.414 1235.73 127C1235.73 155.528 1227.38 162.391 1198.26 162.391C1169.13 162.391 1161.64 155.528 1161.64 127C1161.64 114.32 1163.12 105.92 1167.32 100.501C1157.12 92.1128 1150.35 79.7131 1149.39 65.7112Z" fill="white"/>
<path d="M640.053 154.455C640.053 179.122 621.208 201 572.811 201C528.91 201 502.141 185.342 502.141 148.878V147.591H542.401V152.096C542.401 161.748 545.828 164.322 572.811 164.322C597.224 164.322 599.793 162.391 599.793 155.957C599.793 150.809 597.009 148.664 585.231 147.162L540.26 141.157C513.491 137.51 500 123.139 500 99.9739C500 77.0232 517.774 53 569.598 53C615.212 53 637.055 72.9478 637.055 105.122V106.409H596.795V103.191C596.795 92.8956 592.298 89.4638 565.315 89.4638C544.757 89.4638 540.26 92.2522 540.26 98.4725C540.26 102.977 542.83 105.122 550.539 106.194L595.51 112.843C630.631 117.991 640.053 136.009 640.053 154.455Z" fill="white"/>
<path d="M785.587 162.606V198.855H658.169V55.1449H785.587V91.3942H698.429V108.554H782.375V144.588H698.429V162.606H785.587Z" fill="white"/>
<path fill-rule="evenodd" clip-rule="evenodd" d="M845.857 198.855V149.951H862.346C877.979 149.951 882.262 152.954 887.402 163.678L904.534 198.855H951.004L933.229 162.82C927.876 151.881 923.164 144.803 908.388 140.942V138.797C935.799 135.365 947.149 121.852 947.149 99.1159C947.149 71.0174 927.233 55.1449 889.329 55.1449H805.597V198.855H845.857ZM845.857 91.3942H888.901C900.679 91.3942 904.962 94.1826 904.962 105.551C904.962 117.777 900.679 119.922 888.901 119.922H845.857V91.3942Z" fill="white"/>
<path d="M1102.83 154.455C1102.83 179.122 1083.99 201 1035.59 201C991.689 201 964.92 185.342 964.92 148.878V147.591H1005.18V152.096C1005.18 161.748 1008.61 164.322 1035.59 164.322C1060 164.322 1062.57 162.391 1062.57 155.957C1062.57 150.809 1059.79 148.664 1048.01 147.162L1003.04 141.157C976.27 137.51 962.779 123.139 962.779 99.9739C962.779 77.0232 980.553 53 1032.38 53C1077.99 53 1099.83 72.9478 1099.83 105.122V106.409H1059.57V103.191C1059.57 92.8956 1055.08 89.4638 1028.09 89.4638C1007.54 89.4638 1003.04 92.2522 1003.04 98.4725C1003.04 102.977 1005.61 105.122 1013.32 106.194L1058.29 112.843C1093.41 117.991 1102.83 136.009 1102.83 154.455Z" fill="white"/>
<path d="M1400.23 137.296L1383.09 198.855H1323.35L1293.37 55.1449H1338.34L1350.33 128.287L1354.18 160.675H1356.97L1362.75 128.287L1382.02 55.1449H1442.63L1460.19 128.287L1465.33 160.675H1468.11L1472.39 128.287L1485.89 55.1449H1530L1497.24 198.855H1437.49L1422.5 137.296L1413.07 92.2522H1410.29L1400.23 137.296Z" fill="white"/>
<defs>
<radialGradient id="paint0_radial_235_8113" cx="0" cy="0" r="1" gradientUnits="userSpaceOnUse" gradientTransform="translate(202.318 119.953) rotate(-2.3408) scale(196.954 355.839)">
<stop stop-color="#22D3EE"/>
<stop offset="1" stop-color="#6366F1"/>
</radialGradient>
<radialGradient id="paint1_radial_235_8113" cx="0" cy="0" r="1" gradientUnits="userSpaceOnUse" gradientTransform="translate(51.1591 183.46) rotate(-21.7113) scale(170.993 315.428)">
<stop stop-color="#06B6D4"/>
<stop offset="1" stop-color="#4F46E5"/>
</radialGradient>
</defs>
</svg>
