<svg width="284" height="82" viewBox="0 0 284 82" fill="none" xmlns="http://www.w3.org/2000/svg">
<path d="M66.1361 41.1581C67.3342 42.8214 69.1742 43.653 71.656 43.653C73.282 43.653 74.6085 43.3204 75.6354 42.655C76.748 42.0729 77.6038 41.2829 78.2028 40.2849C78.8875 39.2869 79.3582 38.1227 79.6149 36.792C79.8716 35.5446 80 34.2556 80 32.925C80 29.4321 79.3154 26.1056 77.9461 22.9454C76.6624 19.7852 74.8652 16.9576 72.5546 14.4627C70.2439 12.051 67.5054 10.0967 64.339 8.59973C61.2581 7.18595 57.8777 6.47906 54.1978 6.47906C51.2025 6.47906 48.464 7.14437 45.9821 8.47498C43.5003 9.88875 41.1469 11.4273 38.9218 13.0905C36.7824 14.7538 34.7284 16.2507 32.7601 17.5813C30.8774 18.9951 29.0374 19.702 27.2402 19.702C25.9402 19.702 24.8441 19.4839 23.9521 19.0477C26.4718 22.3132 30.8747 23.8588 35.0941 22.6873L40.7336 21.1215C44.8576 19.9764 48.9373 21.0831 52.329 24.0413C55.7207 26.9994 57.2358 28.8797 58.3912 30.3766C59.5466 31.8735 62.3325 35.7941 62.3325 35.7941C63.7934 38.0105 64.938 39.578 66.1361 41.1581Z" fill="white"/>
<path d="M55.0898 28.422L51.5162 24.856C48.7504 22.0961 44.7026 21.0494 40.9416 22.1217L35.3087 23.7277C27.6952 25.4392 22.3888 20.1581 20.2585 14.6918C19.6601 13.2417 19.1473 11.6637 18.7199 9.95778C18.2925 8.33713 17.6941 6.80178 16.9248 5.35173C16.1555 3.90168 15.087 2.70752 13.7194 1.76925C12.4372 0.830982 10.5994 0.361847 8.20598 0.361847C6.4964 0.361847 5.086 0.745684 3.97477 1.51336C2.94902 2.28103 2.13697 3.2193 1.53862 4.32817C0.940268 5.52233 0.555613 6.84443 0.384655 8.29448C0.128218 9.74454 0 11.1946 0 12.6446C0 16.1418 0.812049 19.6817 2.43615 23.2641C4.06025 26.8466 6.19722 30.0453 8.84707 32.8601C11.5824 35.7602 14.6596 38.1058 18.0788 39.8971C21.5834 41.7736 25.1308 42.7119 28.7209 42.7119C31.1998 42.7119 33.294 42.3281 35.0036 41.5604C36.7132 40.878 38.1663 39.9824 39.363 38.8735C40.5597 37.85 41.6282 36.6984 42.5685 35.419C43.5088 34.1395 44.4063 32.9454 45.2611 31.8365C46.2014 30.8129 47.2271 29.9173 48.3383 29.1496C49.4496 28.4673 50.7745 28.1261 52.3131 28.1261C53.3271 28.1261 54.2527 28.2247 55.0898 28.422Z" fill="white"/>
<path d="M221.061 7.77216C223.978 7.77216 226.343 9.97342 226.343 12.6888C226.343 15.4042 223.978 17.6055 221.061 17.6055C218.144 17.6055 215.779 15.4042 215.779 12.6888C215.779 9.97342 218.144 7.77216 221.061 7.77216Z" fill="white"/>
<path d="M212.268 13.224C208.741 15.3328 206.793 18.9054 206.793 23.4388C206.793 30.9103 212.084 35.7722 221.017 35.7722C230.181 35.7722 235.396 30.9103 235.396 23.4388C235.396 18.8975 233.469 15.3204 229.9 13.213C229.731 15.5624 228.506 17.6419 226.663 19.0423C227.436 19.9462 227.727 21.3411 227.727 23.4388C227.727 28.1934 226.232 29.3374 221.017 29.3374C215.803 29.3374 214.461 28.1934 214.461 23.4388C214.461 21.3255 214.726 19.9255 215.478 19.0223C213.653 17.6243 212.44 15.5577 212.268 13.224Z" fill="white"/>
<path d="M121.075 28.0147C121.075 32.1258 117.701 35.7722 109.036 35.7722C101.176 35.7722 96.3834 33.1625 96.3834 27.0852V26.8707H103.592V27.6214C103.592 29.2301 104.205 29.6591 109.036 29.6591C113.407 29.6591 113.867 29.3374 113.867 28.2649C113.867 27.4069 113.369 27.0495 111.26 26.7992L103.208 25.7983C98.4155 25.1905 96 22.7954 96 18.9345C96 15.1094 99.1824 11.1055 108.461 11.1055C116.628 11.1055 120.539 14.4301 120.539 19.7925V20.0069H113.33V19.4707C113.33 17.7548 112.525 17.1828 107.694 17.1828C104.013 17.1828 103.208 17.6475 103.208 18.6842C103.208 19.435 103.668 19.7925 105.049 19.9712L113.1 21.0794C119.388 21.9374 121.075 24.9403 121.075 28.0147Z" fill="white"/>
<path d="M147.132 29.3731V35.4147H124.319V11.463H147.132V17.5045H131.527V20.3644H146.557V26.3702H131.527V29.3731H147.132Z" fill="white"/>
<path fill-rule="evenodd" clip-rule="evenodd" d="M157.923 35.4147V27.264H160.875C163.674 27.264 164.441 27.7644 165.361 29.5519L168.429 35.4147H176.749L173.566 29.4089C172.608 27.5857 171.764 26.406 169.119 25.7625V25.405C174.027 24.833 176.059 22.5809 176.059 18.7915C176.059 14.1084 172.493 11.463 165.706 11.463H150.715V35.4147H157.923ZM157.923 17.5045H165.63C167.739 17.5045 168.505 17.9693 168.505 19.864C168.505 21.9016 167.739 22.2591 165.63 22.2591H157.923V17.5045Z" fill="white"/>
<path d="M203.933 28.0147C203.933 32.1258 200.558 35.7722 191.893 35.7722C184.033 35.7722 179.24 33.1625 179.24 27.0852V26.8707H186.449V27.6214C186.449 29.2301 187.062 29.6591 191.893 29.6591C196.264 29.6591 196.724 29.3374 196.724 28.2649C196.724 27.4069 196.226 27.0495 194.117 26.7992L186.065 25.7983C181.273 25.1905 178.857 22.7954 178.857 18.9345C178.857 15.1094 182.039 11.1055 191.318 11.1055C199.485 11.1055 203.396 14.4301 203.396 19.7925V20.0069H196.188V19.4707C196.188 17.7548 195.382 17.1828 190.551 17.1828C186.87 17.1828 186.065 17.6475 186.065 18.6842C186.065 19.435 186.525 19.7925 187.906 19.9712L195.957 21.0794C202.245 21.9374 203.933 24.9403 203.933 28.0147Z" fill="white"/>
<path d="M257.179 25.1548L254.111 35.4147H243.414L238.046 11.463H246.098L248.245 23.6533L248.935 29.0514H249.434L250.469 23.6533L253.92 11.463H264.77L267.914 23.6533L268.835 29.0514H269.333L270.1 23.6533L272.515 11.463H280.414L274.547 35.4147H263.85L261.166 25.1548L259.479 17.6475H258.981L257.179 25.1548Z" fill="white"/>
<path d="M0.672 68.0963C0.672 69.7603 1.648 70.8483 3.536 71.2803L5.44 71.7123C6.544 71.9683 7.04 72.5443 7.04 73.4563C7.04 74.6083 6.064 75.3283 4.528 75.3283C3.072 75.3283 2.144 74.6243 2.112 73.5203H0.512C0.608 75.5043 2.176 76.7363 4.528 76.7363C6.992 76.7363 8.608 75.4083 8.608 73.3283C8.608 71.6963 7.648 70.6723 5.76 70.2403L3.856 69.7923C2.768 69.5363 2.24 68.9763 2.24 68.0483C2.24 66.9123 3.184 66.1763 4.64 66.1763C5.936 66.1763 6.752 66.8483 6.832 68.0003H8.416C8.288 66.0003 6.864 64.7683 4.656 64.7683C2.272 64.7683 0.672 66.1123 0.672 68.0963ZM13.6984 76.7363C15.6344 76.7363 16.9464 75.7923 17.3304 74.1123H15.9224C15.6664 75.0083 14.8984 75.4883 13.7304 75.4883C12.2424 75.4883 11.3784 74.5763 11.2664 72.9283L17.3144 72.9123V72.3523C17.3144 70.0323 15.8584 68.4963 13.6344 68.4963C11.3624 68.4963 9.81038 70.1923 9.81038 72.6403C9.81038 75.0723 11.3944 76.7363 13.6984 76.7363ZM13.6344 69.7603C14.9624 69.7603 15.8104 70.6243 15.8104 71.9203H11.2984C11.4904 70.5443 12.3224 69.7603 13.6344 69.7603ZM23.4743 68.6563C23.1703 68.5923 22.9463 68.5603 22.6743 68.5603C21.6023 68.5603 20.8183 69.1043 20.4983 69.9203L20.4023 68.7363H18.9943V76.5443H20.4983V72.4003C20.4983 70.8963 21.3783 70.0323 22.8023 70.0323H23.4743V68.6563ZM24.2449 74.2723C24.2449 75.7603 25.4129 76.7363 27.2529 76.7363C29.1089 76.7363 30.3889 75.7923 30.3889 74.3043C30.3889 73.1363 29.7329 72.5283 28.4049 72.2083L27.0289 71.8723C26.2609 71.6803 25.8769 71.3283 25.8769 70.8003C25.8769 70.0803 26.4049 69.6643 27.3489 69.6643C28.2609 69.6643 28.7889 70.1603 28.8209 70.9443H30.2609C30.2289 69.4563 29.1089 68.4963 27.3969 68.4963C25.6689 68.4963 24.4529 69.4083 24.4529 70.8483C24.4529 72.0003 25.1089 72.6883 26.5009 73.0243L27.8769 73.3443C28.6929 73.5523 28.9489 73.8723 28.9489 74.4003C28.9489 75.1203 28.3409 75.5523 27.2849 75.5523C26.2929 75.5523 25.6849 75.0723 25.6849 74.2723H24.2449ZM31.5448 72.6243C31.5448 75.0403 33.2728 76.7363 35.6248 76.7363C37.9608 76.7363 39.6888 75.0403 39.6888 72.6243C39.6888 70.2083 37.9608 68.5123 35.6248 68.5123C33.2728 68.5123 31.5448 70.2083 31.5448 72.6243ZM33.0648 72.6243C33.0648 70.9923 34.1048 69.8563 35.6248 69.8563C37.1288 69.8563 38.1848 70.9923 38.1848 72.6243C38.1848 74.2563 37.1288 75.3923 35.6248 75.3923C34.1048 75.3923 33.0648 74.2563 33.0648 72.6243ZM42.6743 76.5443H44.1623L45.5223 72.3683C45.8103 71.4243 45.9543 70.9123 46.0343 70.5283C46.1143 70.9603 46.2743 71.5683 46.5303 72.3523L47.8903 76.5443H49.3142L51.9863 68.7203H50.4183L49.1063 72.7843C48.8823 73.4723 48.7383 74.0163 48.6103 74.6403C48.4823 74.0803 48.2263 73.1683 48.0983 72.7843L46.8023 68.7203H45.2663L43.9543 72.7843C43.7783 73.2963 43.5703 73.9523 43.4423 74.6403C43.2983 73.9523 43.1383 73.3603 42.9623 72.7843L41.6663 68.7203H40.1143L42.6743 76.5443ZM63.1065 76.7683C66.4345 76.7683 69.0265 74.1283 69.0265 70.7523C69.0265 67.3923 66.4345 64.7683 63.1065 64.7683C59.7945 64.7683 57.2025 67.3923 57.2025 70.7523C57.2025 74.1283 59.7785 76.7683 63.1065 76.7683ZM63.1065 75.7923C60.3385 75.7923 58.2425 73.6163 58.2425 70.7523C58.2425 67.9203 60.3545 65.7443 63.1065 65.7443C65.8745 65.7443 67.9865 67.9043 67.9865 70.7523C67.9865 73.6163 65.8905 75.7923 63.1065 75.7923ZM60.1465 70.7843C60.1465 72.6723 61.3625 73.9523 63.1705 73.9523C64.6265 73.9523 65.7625 73.0723 65.9865 71.7603H64.7705C64.5625 72.4803 64.0025 72.8803 63.1705 72.8803C62.0825 72.8803 61.3465 72.0323 61.3465 70.7683C61.3465 69.5203 62.1145 68.6563 63.2185 68.6563C64.0345 68.6563 64.5625 69.0403 64.7545 69.7763H65.9865C65.7625 68.4163 64.6905 67.5683 63.1865 67.5683C61.4105 67.5683 60.1465 68.8963 60.1465 70.7843ZM82.5909 76.5283V75.0723H77.2469L79.6469 72.9923C81.6949 71.2163 82.5109 70.0483 82.5109 68.4003C82.5109 66.1763 81.0229 64.7683 78.7029 64.7683C76.3509 64.7683 74.7829 66.3843 74.7349 68.8643H76.3029C76.3349 67.2163 77.2629 66.1763 78.6869 66.1763C80.0789 66.1763 80.9109 67.0403 80.9109 68.4963C80.9109 69.7283 80.3829 70.5123 78.5109 72.1283L74.7829 75.3443V76.5443L82.5909 76.5283ZM84.034 70.7683C84.034 74.3683 85.81 76.7523 88.802 76.7523C91.778 76.7523 93.554 74.3683 93.554 70.7683C93.554 67.1843 91.698 64.7523 88.802 64.7523C85.89 64.7523 84.034 67.1843 84.034 70.7683ZM85.586 70.7683C85.586 67.8883 86.77 66.1603 88.802 66.1603C90.834 66.1603 92.002 67.8883 92.002 70.7683C92.002 73.6163 90.834 75.3443 88.802 75.3443C86.77 75.3443 85.586 73.6163 85.586 70.7683ZM102.888 76.5283V75.0723H97.5438L99.9438 72.9923C101.992 71.2163 102.808 70.0483 102.808 68.4003C102.808 66.1763 101.32 64.7683 98.9998 64.7683C96.6478 64.7683 95.0798 66.3843 95.0318 68.8643H96.5998C96.6318 67.2163 97.5598 66.1763 98.9838 66.1763C100.376 66.1763 101.208 67.0403 101.208 68.4963C101.208 69.7283 100.68 70.5123 98.8078 72.1283L95.0798 75.3443V76.5443L102.888 76.5283ZM107.705 70.5603C109.545 70.5603 110.505 71.4883 110.505 72.8803C110.505 74.3683 109.529 75.3283 108.025 75.3283C106.569 75.3283 105.641 74.4483 105.641 72.9443H104.089C104.089 75.3443 105.721 76.7363 107.993 76.7363C110.345 76.7363 112.105 75.2483 112.105 72.9123C112.105 70.8323 110.617 69.5043 108.649 69.2643L111.817 66.2403V64.9763H104.633V66.3683H109.833L106.553 69.5203V70.5603H107.705ZM118.15 72.9923H134.758V71.6483H118.15V72.9923ZM142.043 76.5443L143.067 73.6643H147.931L148.971 76.5443H150.619L146.379 64.9763H144.635L140.411 76.5443H142.043ZM145.307 67.4723C145.387 67.2323 145.467 66.9603 145.499 66.8003C145.531 66.9763 145.611 67.2483 145.691 67.4723L147.467 72.3043H143.547L145.307 67.4723ZM153.437 76.5443V64.7683H151.933V76.5443H153.437ZM157.187 76.5443V64.7683H155.683V76.5443H157.187ZM165.6 76.5443V71.9683H168.56L170.72 76.5443H172.464L170.112 71.6643C171.552 71.2003 172.352 70.0483 172.352 68.4483C172.352 66.2883 170.88 64.9763 168.4 64.9763H164.032V76.5443H165.6ZM165.6 66.3843H168.4C169.84 66.3843 170.704 67.1203 170.704 68.4643C170.704 69.7923 169.872 70.5763 168.416 70.5763H165.6V66.3843ZM174.98 66.8643C175.524 66.8643 175.972 66.4163 175.972 65.8723C175.972 65.3123 175.524 64.8803 174.98 64.8803C174.436 64.8803 173.988 65.3123 173.988 65.8723C173.988 66.4163 174.436 66.8643 174.98 66.8643ZM174.244 76.5443H175.748V68.7203H174.244V76.5443ZM177.436 72.4323C177.436 74.6243 178.844 76.3363 181.068 76.3363C182.3 76.3363 183.324 75.7923 183.836 74.8803V76.4483C183.836 77.9363 182.876 78.8963 181.404 78.8963C180.092 78.8963 179.228 78.2243 179.036 77.0723H177.532C177.82 79.0563 179.276 80.2563 181.404 80.2563C183.804 80.2563 185.324 78.6883 185.324 76.2243V68.7203H183.98L183.868 70.0483C183.372 69.0723 182.396 68.4963 181.132 68.4963C178.86 68.4963 177.436 70.2243 177.436 72.4323ZM178.94 72.4003C178.94 70.9603 179.836 69.8083 181.34 69.8083C182.876 69.8083 183.772 70.8963 183.772 72.4003C183.772 73.9363 182.844 75.0243 181.324 75.0243C179.852 75.0243 178.94 73.8723 178.94 72.4003ZM188.998 76.5283V72.2723C188.998 70.9283 189.782 69.8723 191.238 69.8723C192.358 69.8723 193.11 70.5123 193.11 72.0963V76.5443H194.614V71.7603C194.614 69.7603 193.654 68.4963 191.654 68.4963C190.438 68.4963 189.494 69.0723 188.998 69.9203V64.7683H187.494V76.5283H188.998ZM198.905 76.5443V69.9843H200.441V68.7203H198.905V66.2723H197.401V68.7203H195.865V69.9843H197.401V76.5443H198.905ZM201.151 74.2723C201.151 75.7603 202.319 76.7363 204.159 76.7363C206.015 76.7363 207.295 75.7923 207.295 74.3043C207.295 73.1363 206.639 72.5283 205.311 72.2083L203.935 71.8723C203.167 71.6803 202.783 71.3283 202.783 70.8003C202.783 70.0803 203.311 69.6643 204.255 69.6643C205.167 69.6643 205.695 70.1603 205.727 70.9443H207.167C207.135 69.4563 206.015 68.4963 204.303 68.4963C202.575 68.4963 201.359 69.4083 201.359 70.8483C201.359 72.0003 202.015 72.6883 203.407 73.0243L204.783 73.3443C205.599 73.5523 205.855 73.8723 205.855 74.4003C205.855 75.1203 205.247 75.5523 204.191 75.5523C203.199 75.5523 202.591 75.0723 202.591 74.2723H201.151ZM215.162 76.5443V71.9683H218.122L220.282 76.5443H222.026L219.674 71.6643C221.114 71.2003 221.914 70.0483 221.914 68.4483C221.914 66.2883 220.442 64.9763 217.962 64.9763H213.594V76.5443H215.162ZM215.162 66.3843H217.962C219.402 66.3843 220.266 67.1203 220.266 68.4643C220.266 69.7923 219.434 70.5763 217.978 70.5763H215.162V66.3843ZM226.62 76.7363C228.556 76.7363 229.868 75.7923 230.252 74.1123H228.844C228.588 75.0083 227.82 75.4883 226.652 75.4883C225.164 75.4883 224.3 74.5763 224.188 72.9283L230.236 72.9123V72.3523C230.236 70.0323 228.78 68.4963 226.556 68.4963C224.284 68.4963 222.732 70.1923 222.732 72.6403C222.732 75.0723 224.316 76.7363 226.62 76.7363ZM226.556 69.7603C227.884 69.7603 228.732 70.6243 228.732 71.9203H224.22C224.412 70.5443 225.244 69.7603 226.556 69.7603ZM231.276 74.2723C231.276 75.7603 232.444 76.7363 234.284 76.7363C236.14 76.7363 237.42 75.7923 237.42 74.3043C237.42 73.1363 236.764 72.5283 235.436 72.2083L234.06 71.8723C233.292 71.6803 232.908 71.3283 232.908 70.8003C232.908 70.0803 233.436 69.6643 234.38 69.6643C235.292 69.6643 235.82 70.1603 235.852 70.9443H237.292C237.26 69.4563 236.14 68.4963 234.428 68.4963C232.7 68.4963 231.484 69.4083 231.484 70.8483C231.484 72.0003 232.14 72.6883 233.532 73.0243L234.908 73.3443C235.724 73.5523 235.98 73.8723 235.98 74.4003C235.98 75.1203 235.372 75.5523 234.316 75.5523C233.324 75.5523 232.716 75.0723 232.716 74.2723H231.276ZM242.464 76.7363C244.4 76.7363 245.712 75.7923 246.096 74.1123H244.688C244.432 75.0083 243.664 75.4883 242.496 75.4883C241.008 75.4883 240.144 74.5763 240.032 72.9283L246.08 72.9123V72.3523C246.08 70.0323 244.624 68.4963 242.4 68.4963C240.128 68.4963 238.576 70.1923 238.576 72.6403C238.576 75.0723 240.16 76.7363 242.464 76.7363ZM242.4 69.7603C243.728 69.7603 244.576 70.6243 244.576 71.9203H240.064C240.256 70.5443 241.088 69.7603 242.4 69.7603ZM252.24 68.6563C251.936 68.5923 251.712 68.5603 251.44 68.5603C250.368 68.5603 249.584 69.1043 249.264 69.9203L249.168 68.7363H247.76V76.5443H249.264V72.4003C249.264 70.8963 250.144 70.0323 251.568 70.0323H252.24V68.6563ZM256.077 76.5443H257.565L260.829 68.7203H259.261L257.517 73.0883C257.245 73.7763 256.989 74.4483 256.861 74.9603C256.733 74.4803 256.509 73.8243 256.237 73.0883L254.525 68.7203H252.925L256.077 76.5443ZM265.042 76.7363C266.978 76.7363 268.29 75.7923 268.674 74.1123H267.266C267.01 75.0083 266.242 75.4883 265.074 75.4883C263.586 75.4883 262.722 74.5763 262.61 72.9283L268.658 72.9123V72.3523C268.658 70.0323 267.202 68.4963 264.978 68.4963C262.706 68.4963 261.154 70.1923 261.154 72.6403C261.154 75.0723 262.738 76.7363 265.042 76.7363ZM264.978 69.7603C266.306 69.7603 267.154 70.6243 267.154 71.9203H262.642C262.834 70.5443 263.666 69.7603 264.978 69.7603ZM273.474 76.7363C274.722 76.7363 275.778 76.1923 276.29 75.1203L276.418 76.5443H277.762V64.7683H276.274V69.9843C275.746 69.0243 274.738 68.4963 273.538 68.4963C271.218 68.4963 269.826 70.2563 269.826 72.6563C269.826 75.0403 271.202 76.7363 273.474 76.7363ZM273.778 75.3763C272.242 75.3763 271.346 74.2243 271.346 72.6083C271.346 71.0083 272.242 69.8563 273.778 69.8563C275.314 69.8563 276.258 71.0083 276.258 72.6083C276.258 74.2403 275.314 75.3763 273.778 75.3763ZM281.052 76.7363C281.66 76.7363 282.188 76.2243 282.188 75.6163C282.188 74.9923 281.66 74.4803 281.052 74.4803C280.428 74.4803 279.9 74.9923 279.9 75.6163C279.9 76.2243 280.428 76.7363 281.052 76.7363Z" fill="#E2E8F0"/>
</svg>
