<svg width="281" height="44" viewBox="0 0 281 44" fill="none" xmlns="http://www.w3.org/2000/svg">
<path d="M66.1361 41.1582C67.3342 42.8214 69.1742 43.6531 71.656 43.6531C73.282 43.6531 74.6085 43.3204 75.6354 42.6551C76.748 42.073 77.6038 41.2829 78.2028 40.285C78.8875 39.287 79.3582 38.1227 79.6149 36.7921C79.8716 35.5447 80 34.2556 80 32.925C80 29.4322 79.3154 26.1056 77.9461 22.9454C76.6624 19.7852 74.8652 16.9577 72.5546 14.4628C70.2439 12.0511 67.5054 10.0967 64.339 8.59979C61.2581 7.18601 57.8777 6.47913 54.1978 6.47913C51.2025 6.47913 48.464 7.14443 45.9821 8.47504C43.5003 9.88882 41.1469 11.4273 38.9218 13.0906C36.7824 14.7539 34.7284 16.2508 32.7601 17.5814C30.8774 18.9952 29.0374 19.7021 27.2402 19.7021C25.9402 19.7021 24.8441 19.484 23.9521 19.0478C26.4718 22.3133 30.8747 23.8588 35.0941 22.6873L40.7336 21.1215C44.8576 19.9765 48.9373 21.0832 52.329 24.0413C55.7207 26.9995 57.2358 28.8797 58.3912 30.3767C59.5466 31.8736 62.3325 35.7941 62.3325 35.7941C63.7934 38.0106 64.938 39.5781 66.1361 41.1582Z" fill="url(#paint0_radial_484_2666)"/>
<path d="M55.0898 28.422L51.5162 24.856C48.7504 22.0961 44.7026 21.0494 40.9416 22.1217L35.3087 23.7277C27.6952 25.4392 22.3888 20.158 20.2585 14.6917C19.6601 13.2417 19.1473 11.6637 18.7199 9.95775C18.2925 8.3371 17.6941 6.80175 16.9248 5.3517C16.1555 3.90165 15.087 2.70749 13.7194 1.76922C12.4372 0.830951 10.5994 0.361816 8.20598 0.361816C6.4964 0.361816 5.086 0.745654 3.97477 1.51333C2.94902 2.281 2.13697 3.21927 1.53862 4.32814C0.940268 5.5223 0.555613 6.8444 0.384655 8.29445C0.128218 9.7445 0 11.1946 0 12.6446C0 16.1418 0.812049 19.6816 2.43615 23.2641C4.06025 26.8466 6.19722 30.0452 8.84707 32.86C11.5824 35.7601 14.6596 38.1058 18.0788 39.8971C21.5834 41.7736 25.1308 42.7119 28.7209 42.7119C31.1998 42.7119 33.294 42.328 35.0036 41.5604C36.7132 40.878 38.1663 39.9824 39.363 38.8735C40.5597 37.8499 41.6282 36.6984 42.5685 35.419C43.5088 34.1395 44.4063 32.9453 45.2611 31.8365C46.2014 30.8129 47.2271 29.9173 48.3383 29.1496C49.4496 28.4672 50.7745 28.126 52.3131 28.126C53.3271 28.126 54.2527 28.2247 55.0898 28.422Z" fill="url(#paint1_radial_484_2666)"/>
<path d="M221.061 7.77209C223.978 7.77209 226.343 9.97336 226.343 12.6888C226.343 15.4042 223.978 17.6054 221.061 17.6054C218.144 17.6054 215.779 15.4042 215.779 12.6888C215.779 9.97336 218.144 7.77209 221.061 7.77209Z" fill="#67E8F9"/>
<path d="M212.268 13.224C208.741 15.3328 206.793 18.9054 206.793 23.4388C206.793 30.9103 212.084 35.7721 221.017 35.7721C230.181 35.7721 235.396 30.9103 235.396 23.4388C235.396 18.8975 233.469 15.3203 229.9 13.213C229.731 15.5623 228.506 17.6419 226.663 19.0423C227.436 19.9462 227.727 21.3411 227.727 23.4388C227.727 28.1934 226.232 29.3373 221.017 29.3373C215.803 29.3373 214.461 28.1934 214.461 23.4388C214.461 21.3255 214.726 19.9255 215.478 19.0222C213.653 17.6243 212.44 15.5577 212.268 13.224Z" fill="white"/>
<path d="M121.075 28.0146C121.075 32.1258 117.701 35.7721 109.036 35.7721C101.176 35.7721 96.3834 33.1625 96.3834 27.0852V26.8707H103.592V27.6214C103.592 29.2301 104.205 29.6591 109.036 29.6591C113.407 29.6591 113.867 29.3373 113.867 28.2649C113.867 27.4069 113.369 27.0494 111.26 26.7992L103.208 25.7982C98.4155 25.1905 96 22.7953 96 18.9345C96 15.1093 99.1824 11.1055 108.461 11.1055C116.628 11.1055 120.539 14.4301 120.539 19.7924V20.0069H113.33V19.4707C113.33 17.7547 112.525 17.1828 107.694 17.1828C104.013 17.1828 103.208 17.6475 103.208 18.6842C103.208 19.4349 103.668 19.7924 105.049 19.9712L113.1 21.0794C119.388 21.9374 121.075 24.9402 121.075 28.0146Z" fill="white"/>
<path d="M147.132 29.3731V35.4146H124.319V11.463H147.132V17.5045H131.527V20.3644H146.557V26.3702H131.527V29.3731H147.132Z" fill="white"/>
<path fill-rule="evenodd" clip-rule="evenodd" d="M157.923 35.4146V27.2639H160.875C163.674 27.2639 164.441 27.7644 165.361 29.5518L168.429 35.4146H176.749L173.566 29.4088C172.608 27.5857 171.764 26.4059 169.119 25.7625V25.405C174.027 24.833 176.059 22.5808 176.059 18.7915C176.059 14.1084 172.493 11.463 165.706 11.463H150.715V35.4146H157.923ZM157.923 17.5045H165.63C167.739 17.5045 168.505 17.9692 168.505 19.8639C168.505 21.9016 167.739 22.2591 165.63 22.2591H157.923V17.5045Z" fill="white"/>
<path d="M203.933 28.0146C203.933 32.1258 200.558 35.7721 191.893 35.7721C184.033 35.7721 179.24 33.1625 179.24 27.0852V26.8707H186.449V27.6214C186.449 29.2301 187.062 29.6591 191.893 29.6591C196.264 29.6591 196.724 29.3373 196.724 28.2649C196.724 27.4069 196.226 27.0494 194.117 26.7992L186.065 25.7982C181.273 25.1905 178.857 22.7953 178.857 18.9345C178.857 15.1093 182.039 11.1055 191.318 11.1055C199.485 11.1055 203.396 14.4301 203.396 19.7924V20.0069H196.188V19.4707C196.188 17.7547 195.382 17.1828 190.551 17.1828C186.87 17.1828 186.065 17.6475 186.065 18.6842C186.065 19.4349 186.525 19.7924 187.906 19.9712L195.957 21.0794C202.245 21.9374 203.933 24.9402 203.933 28.0146Z" fill="white"/>
<path d="M257.179 25.1547L254.111 35.4146H243.414L238.046 11.463H246.098L248.245 23.6533L248.935 29.0514H249.434L250.469 23.6533L253.92 11.463H264.77L267.914 23.6533L268.835 29.0514H269.333L270.1 23.6533L272.515 11.463H280.414L274.547 35.4146H263.85L261.166 25.1547L259.479 17.6475H258.981L257.179 25.1547Z" fill="white"/>
<defs>
<radialGradient id="paint0_radial_484_2666" cx="0" cy="0" r="1" gradientUnits="userSpaceOnUse" gradientTransform="translate(38.5368 22.3217) rotate(-2.28691) scale(37.5137 66.2195)">
<stop stop-color="#22D3EE"/>
<stop offset="1" stop-color="#6366F1"/>
</radialGradient>
<radialGradient id="paint1_radial_484_2666" cx="0" cy="0" r="1" gradientUnits="userSpaceOnUse" gradientTransform="translate(9.7446 34.1395) rotate(-21.2561) scale(32.4684 58.8808)">
<stop stop-color="#06B6D4"/>
<stop offset="1" stop-color="#4F46E5"/>
</radialGradient>
</defs>
</svg>
