<svg width="30" height="26" viewBox="0 0 30 26" fill="none" xmlns="http://www.w3.org/2000/svg">
<path d="M24.2499 20.1234C24.6892 20.7345 25.3639 21.0401 26.2739 21.0401C26.8701 21.0401 27.3565 20.9179 27.733 20.6734C28.1409 20.4595 28.4547 20.1692 28.6744 19.8025C28.9254 19.4358 29.098 19.008 29.1921 18.5191C29.2863 18.0608 29.3333 17.5871 29.3333 17.0982C29.3333 15.8148 29.0823 14.5925 28.5802 13.4313C28.1096 12.2701 27.4506 11.2311 26.6034 10.3144C25.7561 9.42822 24.752 8.71012 23.591 8.16008C22.4613 7.6406 21.2218 7.38086 19.8725 7.38086C18.7743 7.38086 17.7701 7.62532 16.8601 8.11424C15.9501 8.63372 15.0872 9.19904 14.2713 9.81019C13.4869 10.4213 12.7338 10.9714 12.012 11.4603C11.3217 11.9798 10.6471 12.2395 9.98809 12.2395C9.51139 12.2395 9.10951 12.1594 8.78244 11.9991C9.70632 13.199 11.3207 13.7669 12.8678 13.3364L14.9357 12.7611C16.4478 12.3404 17.9437 12.747 19.1873 13.834C20.4309 14.9209 20.9865 15.6118 21.4101 16.1618C21.8337 16.7119 22.8553 18.1524 22.8553 18.1524C23.3909 18.9668 23.8106 19.5428 24.2499 20.1234Z" fill="url(#paint0_radial_2119_35600)"/>
<path d="M20.1996 15.4433L18.8893 14.133C17.8752 13.1189 16.3909 12.7343 15.0119 13.1283L12.9465 13.7184C10.1549 14.3473 8.20923 12.4068 7.42812 10.3982C7.20872 9.86542 7.02067 9.28559 6.86396 8.65876C6.70725 8.06327 6.48785 7.49911 6.20577 6.96631C5.92369 6.4335 5.53191 5.99471 5.03043 5.64995C4.5603 5.30519 3.88644 5.13281 3.00886 5.13281C2.38201 5.13281 1.86487 5.27385 1.45742 5.55593C1.08131 5.838 0.783557 6.18276 0.564161 6.5902C0.344765 7.02899 0.203725 7.51479 0.14104 8.0476C0.0470134 8.5804 0 9.11321 0 9.64602C0 10.931 0.297751 12.2317 0.893254 13.5481C1.48876 14.8644 2.27231 16.0397 3.24392 17.074C4.24688 18.1396 5.3752 19.0015 6.62889 19.6597C7.91392 20.3492 9.21463 20.694 10.531 20.694C11.4399 20.694 12.2078 20.553 12.8347 20.2709C13.4615 20.0201 13.9943 19.6911 14.4331 19.2836C14.8719 18.9075 15.2637 18.4844 15.6084 18.0143C15.9532 17.5441 16.2823 17.1054 16.5957 16.6979C16.9405 16.3218 17.3166 15.9927 17.7241 15.7107C18.1315 15.4599 18.6173 15.3346 19.1815 15.3346C19.5533 15.3346 19.8927 15.3708 20.1996 15.4433Z" fill="url(#paint1_radial_2119_35600)"/>
<defs>
<radialGradient id="paint0_radial_2119_35600" cx="0" cy="0" r="1" gradientUnits="userSpaceOnUse" gradientTransform="translate(14.1302 13.2021) rotate(-2.29174) scale(13.7551 24.3317)">
<stop stop-color="#22D3EE"/>
<stop offset="1" stop-color="#6366F1"/>
</radialGradient>
<radialGradient id="paint1_radial_2119_35600" cx="0" cy="0" r="1" gradientUnits="userSpaceOnUse" gradientTransform="translate(3.57302 17.5441) rotate(-21.297) scale(11.9084 21.6293)">
<stop stop-color="#06B6D4"/>
<stop offset="1" stop-color="#4F46E5"/>
</radialGradient>
</defs>
</svg>
