<svg width="281" height="44" viewBox="0 0 281 44" fill="none" xmlns="http://www.w3.org/2000/svg">
<path d="M66.1362 41.3861C67.3343 43.0493 69.1743 43.881 71.6561 43.881C73.2821 43.881 74.6086 43.5483 75.6355 42.883C76.748 42.3009 77.6038 41.5108 78.2029 40.5129C78.8875 39.5149 79.3582 38.3506 79.615 37.02C79.8717 35.7726 80.0001 34.4835 80.0001 33.1529C80.0001 29.6601 79.3154 26.3335 77.9462 23.1733C76.6625 20.0131 74.8653 17.1856 72.5546 14.6907C70.244 12.279 67.5055 10.3246 64.339 8.82769C61.2581 7.41392 57.8778 6.70703 54.1978 6.70703C51.2026 6.70703 48.464 7.37234 45.9822 8.70295C43.5004 10.1167 41.147 11.6552 38.9219 13.3185C36.7824 14.9818 34.7285 16.4787 32.7602 17.8093C30.8774 19.2231 29.0375 19.93 27.2403 19.93C25.9402 19.93 24.8442 19.7119 23.9521 19.2757C26.4718 22.5412 30.8747 24.0867 35.0941 22.9152L40.7337 21.3494C44.8577 20.2044 48.9374 21.3111 52.329 24.2692C55.7207 27.2274 57.2358 29.1076 58.3912 30.6046C59.5466 32.1015 62.3326 36.0221 62.3326 36.0221C63.7934 38.2385 64.9381 39.806 66.1362 41.3861Z" fill="url(#paint0_radial_768_1373)"/>
<path d="M55.0898 28.65L51.5162 25.084C48.7504 22.3241 44.7026 21.2774 40.9416 22.3497L35.3087 23.9557C27.6952 25.6672 22.3888 20.3861 20.2585 14.9198C19.6601 13.4697 19.1473 11.8917 18.7199 10.1858C18.2925 8.56513 17.6941 7.02978 16.9248 5.57973C16.1555 4.12968 15.087 2.93552 13.7194 1.99725C12.4372 1.05898 10.5994 0.589844 8.20598 0.589844C6.4964 0.589844 5.086 0.973681 3.97477 1.74136C2.94902 2.50903 2.13697 3.4473 1.53862 4.55616C0.940268 5.75032 0.555613 7.07243 0.384655 8.52248C0.128218 9.97253 0 11.4226 0 12.8726C0 16.3698 0.812049 19.9097 2.43615 23.4921C4.06025 27.0746 6.19722 30.2733 8.84707 33.0881C11.5824 35.9882 14.6596 38.3338 18.0788 40.1251C21.5834 42.0016 25.1308 42.9399 28.7209 42.9399C31.1998 42.9399 33.294 42.5561 35.0036 41.7884C36.7132 41.106 38.1663 40.2104 39.363 39.1015C40.5597 38.078 41.6282 36.9264 42.5685 35.647C43.5088 34.3675 44.4063 33.1734 45.2611 32.0645C46.2014 31.0409 47.2271 30.1453 48.3383 29.3776C49.4496 28.6953 50.7745 28.3541 52.3131 28.3541C53.3271 28.3541 54.2527 28.4527 55.0898 28.65Z" fill="url(#paint1_radial_768_1373)"/>
<path d="M221.061 8C223.978 8 226.343 10.2013 226.343 12.9167C226.343 15.6321 223.978 17.8333 221.061 17.8333C218.144 17.8333 215.779 15.6321 215.779 12.9167C215.779 10.2013 218.144 8 221.061 8Z" fill="#67E8F9"/>
<path d="M212.268 13.452C208.741 15.5608 206.793 19.1334 206.793 23.6668C206.793 31.1383 212.084 36.0002 221.017 36.0002C230.181 36.0002 235.396 31.1383 235.396 23.6668C235.396 19.1255 233.469 15.5484 229.9 13.441C229.731 15.7904 228.506 17.8699 226.663 19.2703C227.436 20.1742 227.727 21.5691 227.727 23.6668C227.727 28.4214 226.232 29.5654 221.017 29.5654C215.803 29.5654 214.461 28.4214 214.461 23.6668C214.461 21.5535 214.726 20.1535 215.478 19.2503C213.653 17.8523 212.44 15.7857 212.268 13.452Z" fill="white"/>
<path d="M121.075 28.2427C121.075 32.3538 117.701 36.0002 109.036 36.0002C101.176 36.0002 96.3834 33.3905 96.3834 27.3132V27.0987H103.592V27.8494C103.592 29.4581 104.205 29.8871 109.036 29.8871C113.407 29.8871 113.867 29.5654 113.867 28.4929C113.867 27.6349 113.369 27.2775 111.26 27.0272L103.208 26.0262C98.4155 25.4185 96 23.0233 96 19.1625C96 15.3374 99.1824 11.3335 108.461 11.3335C116.628 11.3335 120.539 14.6581 120.539 20.0205V20.2349H113.33V19.6987C113.33 17.9828 112.525 17.4108 107.694 17.4108C104.013 17.4108 103.208 17.8755 103.208 18.9122C103.208 19.663 103.668 20.0205 105.049 20.1992L113.1 21.3074C119.388 22.1654 121.075 25.1683 121.075 28.2427Z" fill="white"/>
<path d="M147.132 29.6011V35.6427H124.319V11.691H147.132V17.7325H131.527V20.5924H146.557V26.5982H131.527V29.6011H147.132Z" fill="white"/>
<path fill-rule="evenodd" clip-rule="evenodd" d="M157.923 35.6427V27.4919H160.875C163.674 27.4919 164.441 27.9924 165.361 29.7799L168.429 35.6427H176.749L173.566 29.6369C172.608 27.8137 171.764 26.634 169.119 25.9905V25.633C174.027 25.061 176.059 22.8089 176.059 19.0195C176.059 14.3364 172.493 11.691 165.706 11.691H150.715V35.6427H157.923ZM157.923 17.7325H165.63C167.739 17.7325 168.505 18.1973 168.505 20.0919C168.505 22.1296 167.739 22.4871 165.63 22.4871H157.923V17.7325Z" fill="white"/>
<path d="M203.933 28.2427C203.933 32.3538 200.558 36.0002 191.893 36.0002C184.033 36.0002 179.24 33.3905 179.24 27.3132V27.0987H186.449V27.8494C186.449 29.4581 187.062 29.8871 191.893 29.8871C196.264 29.8871 196.724 29.5654 196.724 28.4929C196.724 27.6349 196.226 27.2775 194.117 27.0272L186.065 26.0262C181.273 25.4185 178.857 23.0233 178.857 19.1625C178.857 15.3374 182.039 11.3335 191.318 11.3335C199.485 11.3335 203.396 14.6581 203.396 20.0205V20.2349H196.188V19.6987C196.188 17.9828 195.382 17.4108 190.551 17.4108C186.87 17.4108 186.065 17.8755 186.065 18.9122C186.065 19.663 186.525 20.0205 187.906 20.1992L195.957 21.3074C202.245 22.1654 203.933 25.1683 203.933 28.2427Z" fill="white"/>
<path d="M257.179 25.3828L254.111 35.6427H243.414L238.046 11.691H246.098L248.245 23.8813L248.935 29.2794H249.434L250.469 23.8813L253.92 11.691H264.77L267.914 23.8813L268.835 29.2794H269.333L270.1 23.8813L272.515 11.691H280.414L274.547 35.6427H263.85L261.166 25.3828L259.479 17.8755H258.981L257.179 25.3828Z" fill="white"/>
<defs>
<radialGradient id="paint0_radial_768_1373" cx="0" cy="0" r="1" gradientUnits="userSpaceOnUse" gradientTransform="translate(38.5369 22.5496) rotate(-2.28691) scale(37.5137 66.2195)">
<stop stop-color="#22D3EE"/>
<stop offset="1" stop-color="#6366F1"/>
</radialGradient>
<radialGradient id="paint1_radial_768_1373" cx="0" cy="0" r="1" gradientUnits="userSpaceOnUse" gradientTransform="translate(9.7446 34.3675) rotate(-21.2561) scale(32.4684 58.8808)">
<stop stop-color="#06B6D4"/>
<stop offset="1" stop-color="#4F46E5"/>
</radialGradient>
</defs>
</svg>
