<svg width="1438" height="896" viewBox="0 0 1438 896" fill="none" xmlns="http://www.w3.org/2000/svg">
<g opacity="0.2">
<rect width="895" height="1438" transform="matrix(4.16999e-08 -1 -1 -4.58199e-08 1438 895.04)" fill="#0F172A"/>
<mask id="mask0_627_2838" style="mask-type:alpha" maskUnits="userSpaceOnUse" x="4" y="0" width="1434" height="896">
<rect x="-0.5" y="-0.5" width="894" height="1432.6" transform="matrix(4.16999e-08 -1 -1 -4.58199e-08 1437 894.04)" fill="#0F172A" stroke="#94A3B8"/>
</mask>
<g mask="url(#mask0_627_2838)">
<path d="M1785.62 -272.845C1698.52 -130.106 1522.25 93.6814 965.803 -20.1679C257.687 -165.049 443.194 -519.093 -103.352 -361.85" stroke="#94A3B8"/>
<path d="M1696.8 -226.831C1609.7 -84.0921 1433.43 139.696 876.981 25.8463C168.866 -119.035 354.372 -473.079 -192.174 -315.836" stroke="#94A3B8"/>
<path d="M1627.9 -178.755C1540.8 -36.0169 1364.52 187.771 808.079 73.9215C99.9634 -70.9598 285.47 -425.004 -261.076 -267.761" stroke="#94A3B8"/>
<path d="M1581.35 -129.058C1494.24 13.6809 1317.97 237.469 761.528 123.619C53.4128 -21.262 238.919 -375.306 -307.626 -218.063" stroke="#94A3B8"/>
<path d="M1557.36 -78.3906C1470.26 64.3479 1293.99 288.136 737.545 174.286C29.4295 29.405 214.936 -324.639 -331.61 -167.396" stroke="#94A3B8"/>
<path d="M1553.57 -27.3799C1466.47 115.359 1290.19 339.146 733.749 225.297C25.6333 80.4157 211.14 -273.629 -335.406 -116.385" stroke="#94A3B8"/>
<path d="M1565.76 23.5567C1478.66 166.295 1302.39 390.083 745.945 276.233C37.8299 131.352 223.336 -222.692 -323.209 -65.4489" stroke="#94A3B8"/>
<path d="M1589.22 74.2334C1502.12 216.972 1325.85 440.76 769.404 326.91C61.2889 182.029 246.795 -172.015 -299.75 -14.7722" stroke="#94A3B8"/>
<path d="M1619.61 124.694C1532.51 267.432 1356.24 491.22 799.797 377.371C91.6813 232.489 277.188 -121.555 -269.358 35.6883" stroke="#94A3B8"/>
<path d="M1653.36 175.024C1566.26 317.763 1389.99 541.551 833.543 427.701C125.428 282.82 310.934 -71.2242 -235.611 86.0188" stroke="#94A3B8"/>
<path d="M1687.67 225.328C1600.57 368.067 1424.3 591.854 867.853 478.005C159.738 333.124 345.244 -20.9205 -201.301 136.323" stroke="#94A3B8"/>
<path d="M1720.45 275.692C1633.35 418.43 1457.08 642.218 900.633 528.369C192.517 383.487 378.024 29.4433 -168.522 186.686" stroke="#94A3B8"/>
<path d="M1750.15 326.183C1663.05 468.922 1486.78 692.709 930.336 578.86C222.221 433.979 407.727 79.9345 -138.818 237.178" stroke="#94A3B8"/>
<path d="M1775.69 376.804C1688.59 519.543 1512.32 743.33 955.875 629.481C247.76 484.6 433.266 130.556 -113.279 287.799" stroke="#94A3B8"/>
<path d="M1796.32 427.568C1709.22 570.306 1532.95 794.094 976.501 680.245C268.386 535.363 453.892 181.319 -92.6533 338.562" stroke="#94A3B8"/>
<path d="M1811.76 478.754C1724.65 621.492 1548.38 845.28 991.938 731.431C283.823 586.549 469.329 232.505 -77.2164 389.748" stroke="#94A3B8"/>
<path d="M1823.64 529.69C1736.54 672.429 1560.27 896.217 1003.82 782.367C295.706 637.486 481.212 283.442 -65.3336 440.685" stroke="#94A3B8"/>
<path d="M1832.55 580.66C1745.45 723.398 1569.18 947.186 1012.73 833.337C304.619 688.455 490.125 334.411 -56.42 491.654" stroke="#94A3B8"/>
<path d="M1838.09 631.663C1750.99 774.401 1574.71 998.189 1018.27 884.339C310.154 739.458 495.66 385.414 -50.8856 542.657" stroke="#94A3B8"/>
<path d="M1839.74 682.681C1752.64 825.42 1576.37 1049.21 1019.92 935.358C311.806 790.477 497.312 436.433 -49.2332 593.676" stroke="#94A3B8"/>
<path d="M1836.85 733.694C1749.75 876.433 1573.48 1100.22 1017.03 986.371C308.919 841.49 494.425 487.445 -52.1202 644.689" stroke="#94A3B8"/>
<path d="M1828.57 784.666C1741.47 927.404 1565.2 1151.19 1008.75 1037.34C300.637 892.461 486.143 538.417 -60.4023 695.66" stroke="#94A3B8"/>
<path d="M1813.73 835.555C1726.63 978.294 1550.36 1202.08 993.915 1088.23C285.799 943.351 471.306 589.307 -75.2398 746.55" stroke="#94A3B8"/>
<path d="M1790.71 886.255C1703.61 1028.99 1527.34 1252.78 970.895 1138.93C262.779 994.05 448.286 640.006 -98.2597 797.249" stroke="#94A3B8"/>
<path d="M1757.16 936.594C1670.06 1079.33 1493.79 1303.12 937.341 1189.27C229.226 1044.39 414.732 690.345 -131.814 847.588" stroke="#94A3B8"/>
<path d="M1709.72 986.223C1622.62 1128.96 1446.35 1352.75 889.906 1238.9C181.791 1094.02 367.297 739.974 -179.248 897.217" stroke="#94A3B8"/>
</g>
</g>
</svg>
