<svg width="348" height="86" viewBox="0 0 348 86" fill="none" xmlns="http://www.w3.org/2000/svg">
<rect x="0.5" y="0.5" width="347" height="84.3455" stroke="#475569"/>
<mask id="mask0_2119_35133" style="mask-type:alpha" maskUnits="userSpaceOnUse" x="0" y="0" width="116" height="86">
<rect width="116" height="85.3455" fill="#C4C4C4"/>
</mask>
<g mask="url(#mask0_2119_35133)">
<path d="M-19.7344 -15.0729C1.10413 -3.34339 2.87341 2.87576 -14.4265 3.58455C-34.2678 5.09431 -32.4986 11.3135 -9.11871 22.242C14.0652 32.4817 15.8345 38.7008 -3.81088 40.8994C-15.8118 40.377 -14.0426 46.5961 1.49695 59.5569C17.5508 74.3256 19.3201 80.5448 6.80478 78.2143C-14.6688 77.4909 -12.8995 83.7101 12.1126 96.8718" stroke="#475569"/>
<path d="M113.221 -1.15793C124.759 0.380126 127.495 14.2274 117.238 12.9623C105.507 12.0183 105.498 23.0214 121.255 27.0825C132.633 30.015 134.375 43.7548 122.792 43.3321C113.209 42.9824 116.105 51.5541 127.299 59.1734C136.038 65.1217 133.837 67.4895 132.854 71.8549C131.73 76.8438 127.52 83.4171 137.323 83.5633" stroke="#475569"/>
<path d="M-11.8553 -14.2913C8.43609 -3.16126 10.2622 3.50661 -6.62342 4.09928C-25.9877 5.46471 -24.323 11.9653 -1.39152 22.4898C21.0979 32.2997 22.8656 38.9612 3.69451 41.0056C-8.16423 40.4934 -6.32868 46.8509 8.95521 59.4974C24.5788 73.7473 26.1145 79.7399 14.2776 77.8033C-5.99894 77.416 -4.58137 83.656 19.5361 96.052" stroke="#FCFCF4"/>
<path d="M-3.97676 -13.5104C15.7676 -2.97984 17.6505 4.13673 1.17921 4.61329C-17.708 5.83438 -16.1479 12.6164 6.33519 22.7369C28.1302 32.117 29.8962 39.2209 11.1994 41.1111C-0.517091 40.609 1.38472 47.1049 16.413 59.4372C31.6063 73.1683 32.9085 78.9343 21.7499 77.3916C2.67041 77.3403 3.73626 83.6011 26.9591 95.2316" stroke="#F9F9EA"/>
<path d="M3.90146 -12.7272C23.0987 -2.79619 25.0385 4.7691 8.98151 5.12955C-9.42862 6.2063 -7.97313 13.2697 14.0615 22.9863C35.1621 31.9365 36.9265 39.4828 18.704 41.2189C7.12971 40.7269 9.09779 47.3612 23.8704 59.3793C38.6334 72.5915 39.7021 78.131 29.2218 76.9822C11.3394 77.2669 12.0536 83.5485 34.3817 94.4134" stroke="#F6F6DF"/>
<path d="M11.7792 -11.9447C30.4293 -2.61322 32.426 5.40079 16.7833 5.64512C-1.14975 6.57753 0.201149 13.9223 21.7874 23.235C42.1936 31.7554 43.9563 39.7441 26.208 41.3259C14.776 40.8441 16.8104 47.6168 31.3273 59.3207C45.6601 72.0141 46.4952 77.327 36.6933 76.5721C20.0079 77.1927 20.3704 83.4952 41.8039 93.5944" stroke="#F3F3D5"/>
<path d="M19.6564 -11.1619C37.7594 -2.42991 39.8129 6.03281 24.5845 6.16103C7.12856 6.9491 8.37485 14.5753 29.5127 23.484C49.2244 31.5745 50.9856 40.0056 33.7115 41.4333C22.4218 40.9616 24.5224 47.8727 38.7837 59.2624C52.6861 71.4369 53.2878 76.5233 44.1642 76.1622C28.6759 77.1189 28.6866 83.4423 49.2255 92.7758" stroke="#F0EFCA"/>
<path d="M27.5329 -10.3788C45.0889 -2.24623 47.1993 6.66521 32.3852 6.67731C15.4063 7.32104 16.548 15.2287 37.2374 23.7334C56.2547 31.3941 58.0142 40.2676 41.2144 41.541C30.0669 41.0795 32.2338 48.129 46.2395 59.2045C59.7116 70.8602 60.0797 75.72 51.6345 75.7528C37.3432 77.0455 37.0022 83.3897 56.6465 91.9577" stroke="#EDECC0"/>
<path d="M35.4089 -9.59518C52.4178 -2.06215 54.585 7.298 40.1852 7.19399C23.6834 7.69338 24.7205 15.8824 44.9615 23.9832C63.2843 31.214 65.0422 40.5299 48.7167 41.6492C37.7114 41.1978 39.9446 48.3857 53.6947 59.147C66.7365 70.2838 66.8711 74.9171 59.1042 75.3438C46.01 76.9725 45.3173 83.3375 64.0668 91.1398" stroke="#E9E9B5"/>
<path d="M43.2842 -8.81116C59.746 -1.87763 61.9701 7.93124 47.9846 7.71112C31.9598 8.06617 32.8923 16.5366 52.685 24.2334C70.3134 31.0344 72.0696 40.7927 56.2184 41.7578C45.3553 41.3166 47.6547 48.6428 61.1492 59.0899C73.7607 69.7079 73.6618 74.1146 66.5733 74.9352C54.6761 76.8999 53.6316 83.2858 71.4866 90.3225" stroke="#E6E6AB"/>
<path d="M51.1586 -8.02665C67.0733 -1.69261 69.3542 8.56496 55.7831 8.22873C40.2353 8.43945 41.0633 17.1913 60.4076 24.4841C77.3415 30.8553 79.0961 41.056 63.7191 41.8668C52.9983 41.4359 55.364 48.9004 68.6028 59.0334C80.7841 69.1325 80.4516 73.3127 74.0414 74.5271C63.3413 76.8279 61.9451 83.2345 78.9054 89.5056" stroke="#E3E3A0"/>
<path d="M59.0323 -7.24159C74.3999 -1.50706 76.7377 9.19923 63.5808 8.74689C48.5102 8.81326 49.2335 17.8465 68.1294 24.7354C84.3689 30.6767 86.1219 41.3198 71.2191 41.9765C60.6406 41.5556 63.0725 49.1586 76.0557 58.9773C87.8067 68.5576 87.2407 72.5112 81.5088 74.1195C72.0057 76.7563 70.2579 83.1838 86.3235 88.6893" stroke="#E0E096"/>
<path d="M66.905 -6.45593C81.7255 -1.3209 84.1201 9.83411 71.3776 9.26565C56.784 9.18769 57.4027 18.5024 75.8502 24.9872C91.3953 30.4988 93.1467 41.5842 78.7182 42.0867C68.2819 41.676 70.7801 49.4174 83.5076 58.9219C94.8283 67.9833 94.0288 71.7104 88.9753 73.7126C80.6692 76.6854 78.5697 83.1337 93.7407 87.8736" stroke="#DDDD8B"/>
<path d="M74.6353 -5.57986C88.9087 -1.04432 91.3602 10.5594 79.032 9.87483C64.9154 9.65252 65.4296 19.2486 83.4286 25.3295C98.2792 30.4112 100.029 41.9391 86.0748 42.2873C75.7807 41.8868 78.3452 49.7666 90.8171 58.9569C101.707 67.4995 100.674 71 96.2993 73.396C89.1903 76.7049 86.739 83.174 101.015 87.1483" stroke="#DADA81"/>
<path d="M82.3526 -4.69547C96.0789 -0.75943 98.5872 11.293 86.6733 10.4923C73.0338 10.1257 73.4434 20.0032 90.9941 25.6801C105.15 30.332 106.898 42.3022 93.4184 42.4963C83.2666 42.106 85.8973 50.1241 98.1136 59.0002C108.574 67.0239 107.307 70.2979 103.61 73.0878C97.6983 76.7327 94.8954 83.2226 108.277 86.4313" stroke="#D7D776"/>
<path d="M90.0698 -3.81104C103.249 -0.474496 105.814 12.0266 94.3146 11.1099C81.1522 10.5989 81.4571 20.7578 98.5594 26.0307C112.021 30.2528 113.768 42.6654 100.762 42.7053C90.7523 42.3251 93.4494 50.4816 105.41 59.0435C115.44 66.5484 113.94 69.5958 110.921 72.7796C106.206 76.7605 103.052 83.2713 115.539 85.7143" stroke="#D4D36C"/>
<path d="M97.7869 -2.92705C110.419 -0.190002 113.041 12.7599 101.956 11.7269C89.2705 11.0716 89.4708 21.5119 106.125 26.3809C118.892 30.1732 120.637 43.0282 108.105 42.9139C98.2381 42.5438 101.001 50.8387 112.706 59.0864C122.306 66.0725 120.572 68.8933 118.232 72.471C114.714 76.7879 111.208 83.3195 122.8 84.9969" stroke="#D1D061"/>
<path d="M105.504 -2.04301C117.589 0.0945437 120.268 13.4931 109.597 12.3441C97.3886 11.5444 97.4843 22.2662 113.69 26.7312C125.763 30.0936 127.506 43.391 115.449 43.1225C105.724 42.7626 108.553 51.1959 120.003 59.1294C129.172 65.5966 127.205 68.1909 125.543 72.1624C123.222 76.8153 119.364 83.3678 130.062 84.2796" stroke="#CECD57"/>
<path d="M-11.8553 -14.2913C8.43609 -3.16126 10.2622 3.50661 -6.62342 4.09928C-25.9877 5.46471 -24.323 11.9653 -1.39152 22.4898C21.0979 32.2997 22.8656 38.9612 3.69451 41.0056C-8.16423 40.4934 -6.32868 46.8509 8.95521 59.4974C24.5788 73.7473 26.1145 79.7399 14.2776 77.8033C-5.99894 77.416 -4.58137 83.656 19.5361 96.052" stroke="#475569"/>
<path d="M-3.97676 -13.5104C15.7676 -2.97984 17.6505 4.13673 1.17921 4.61329C-17.708 5.83438 -16.1479 12.6164 6.33519 22.7369C28.1302 32.117 29.8962 39.2209 11.1994 41.1111C-0.517091 40.609 1.38472 47.1049 16.413 59.4372C31.6063 73.1683 32.9085 78.9343 21.7499 77.3916C2.67041 77.3403 3.73626 83.6011 26.9591 95.2316" stroke="#475569"/>
<path d="M3.90146 -12.7272C23.0987 -2.79619 25.0385 4.7691 8.98151 5.12955C-9.42862 6.2063 -7.97313 13.2697 14.0615 22.9863C35.1621 31.9365 36.9265 39.4828 18.704 41.2189C7.12971 40.7269 9.09779 47.3612 23.8704 59.3793C38.6334 72.5915 39.7021 78.131 29.2218 76.9822C11.3394 77.2669 12.0536 83.5485 34.3817 94.4134" stroke="#475569"/>
<path d="M11.7792 -11.9447C30.4293 -2.61322 32.426 5.40079 16.7833 5.64512C-1.14975 6.57753 0.201149 13.9223 21.7874 23.235C42.1936 31.7554 43.9563 39.7441 26.208 41.3259C14.776 40.8441 16.8104 47.6168 31.3273 59.3207C45.6601 72.0141 46.4952 77.327 36.6933 76.5721C20.0079 77.1927 20.3704 83.4952 41.8039 93.5944" stroke="#475569"/>
<path d="M19.6564 -11.1619C37.7594 -2.42991 39.8129 6.03281 24.5845 6.16103C7.12856 6.9491 8.37485 14.5753 29.5127 23.484C49.2244 31.5745 50.9856 40.0056 33.7115 41.4333C22.4218 40.9616 24.5224 47.8727 38.7837 59.2624C52.6861 71.4369 53.2878 76.5233 44.1642 76.1622C28.6759 77.1189 28.6866 83.4423 49.2255 92.7758" stroke="#475569"/>
<path d="M27.5329 -10.3788C45.0889 -2.24623 47.1993 6.66521 32.3852 6.67731C15.4063 7.32104 16.548 15.2287 37.2374 23.7334C56.2547 31.3941 58.0142 40.2676 41.2144 41.541C30.0669 41.0795 32.2338 48.129 46.2395 59.2045C59.7116 70.8602 60.0797 75.72 51.6345 75.7528C37.3432 77.0455 37.0022 83.3897 56.6465 91.9577" stroke="#475569"/>
<path d="M35.4089 -9.59518C52.4178 -2.06215 54.585 7.298 40.1852 7.19399C23.6834 7.69338 24.7205 15.8824 44.9615 23.9832C63.2843 31.214 65.0422 40.5299 48.7167 41.6492C37.7114 41.1978 39.9446 48.3857 53.6947 59.147C66.7365 70.2838 66.8711 74.9171 59.1042 75.3438C46.01 76.9725 45.3173 83.3375 64.0668 91.1398" stroke="#475569"/>
<path d="M43.2842 -8.81116C59.746 -1.87763 61.9701 7.93124 47.9846 7.71112C31.9598 8.06617 32.8923 16.5366 52.685 24.2334C70.3134 31.0344 72.0696 40.7927 56.2184 41.7578C45.3553 41.3166 47.6547 48.6428 61.1492 59.0899C73.7607 69.7079 73.6618 74.1146 66.5733 74.9352C54.6761 76.8999 53.6316 83.2858 71.4866 90.3225" stroke="#475569"/>
<path d="M51.1586 -8.02665C67.0733 -1.69261 69.3542 8.56496 55.7831 8.22873C40.2353 8.43945 41.0633 17.1913 60.4076 24.4841C77.3415 30.8553 79.0961 41.056 63.7191 41.8668C52.9983 41.4359 55.364 48.9004 68.6028 59.0334C80.7841 69.1325 80.4516 73.3127 74.0414 74.5271C63.3413 76.8279 61.9451 83.2345 78.9054 89.5056" stroke="#475569"/>
<path d="M59.0323 -7.24159C74.3999 -1.50706 76.7377 9.19923 63.5808 8.74689C48.5102 8.81326 49.2335 17.8465 68.1294 24.7354C84.3689 30.6767 86.1219 41.3198 71.2191 41.9765C60.6406 41.5556 63.0725 49.1586 76.0557 58.9773C87.8067 68.5576 87.2407 72.5112 81.5088 74.1195C72.0057 76.7563 70.2579 83.1838 86.3235 88.6893" stroke="#475569"/>
<path d="M66.905 -6.45593C81.7255 -1.3209 84.1201 9.83411 71.3776 9.26565C56.784 9.18769 57.4027 18.5024 75.8502 24.9872C91.3953 30.4988 93.1467 41.5842 78.7182 42.0867C68.2819 41.676 70.7801 49.4174 83.5076 58.9219C94.8283 67.9833 94.0288 71.7104 88.9753 73.7126C80.6692 76.6854 78.5697 83.1337 93.7407 87.8736" stroke="#475569"/>
<path d="M74.6353 -5.57986C88.9087 -1.04432 91.3602 10.5594 79.032 9.87483C64.9154 9.65252 65.4296 19.2486 83.4286 25.3295C98.2792 30.4112 100.029 41.9391 86.0748 42.2873C75.7807 41.8868 78.3452 49.7666 90.8171 58.9569C101.707 67.4995 100.674 71 96.2993 73.396C89.1903 76.7049 86.739 83.174 101.015 87.1483" stroke="#475569"/>
<path d="M82.3526 -4.69547C96.0789 -0.75943 98.5872 11.293 86.6733 10.4923C73.0338 10.1257 73.4434 20.0032 90.9941 25.6801C105.15 30.332 106.898 42.3022 93.4184 42.4963C83.2666 42.106 85.8973 50.1241 98.1136 59.0002C108.574 67.0239 107.307 70.2979 103.61 73.0878C97.6983 76.7327 94.8954 83.2226 108.277 86.4313" stroke="#475569"/>
<path d="M90.0698 -3.81104C103.249 -0.474496 105.814 12.0266 94.3146 11.1099C81.1522 10.5989 81.4571 20.7578 98.5594 26.0307C112.021 30.2528 113.768 42.6654 100.762 42.7053C90.7523 42.3251 93.4494 50.4816 105.41 59.0435C115.44 66.5484 113.94 69.5958 110.921 72.7796C106.206 76.7605 103.052 83.2713 115.539 85.7143" stroke="#475569"/>
<path d="M97.7869 -2.92705C110.419 -0.190002 113.041 12.7599 101.956 11.7269C89.2705 11.0716 89.4708 21.5119 106.125 26.3809C118.892 30.1732 120.637 43.0282 108.105 42.9139C98.2381 42.5438 101.001 50.8387 112.706 59.0864C122.306 66.0725 120.572 68.8933 118.232 72.471C114.714 76.7879 111.208 83.3195 122.8 84.9969" stroke="#475569"/>
<path d="M105.504 -2.04301C117.589 0.0945437 120.268 13.4931 109.597 12.3441C97.3886 11.5444 97.4843 22.2662 113.69 26.7312C125.763 30.0936 127.506 43.391 115.449 43.1225C105.724 42.7626 108.553 51.1959 120.003 59.1294C129.172 65.5966 127.205 68.1909 125.543 72.1624C123.222 76.8153 119.364 83.3678 130.062 84.2796" stroke="#475569"/>
</g>
<mask id="mask1_2119_35133" style="mask-type:alpha" maskUnits="userSpaceOnUse" x="116" y="0" width="116" height="86">
<rect width="116" height="85.3455" transform="matrix(-1 0 0 1 232 0)" fill="#C4C4C4"/>
</mask>
<g mask="url(#mask1_2119_35133)">
<path d="M251.734 -15.0729C230.896 -3.34339 229.127 2.87576 246.427 3.58455C266.268 5.09431 264.499 11.3135 241.119 22.242C217.935 32.4817 216.165 38.7008 235.811 40.8994C247.812 40.377 246.043 46.5961 230.503 59.5569C214.449 74.3256 212.68 80.5448 225.195 78.2143C246.669 77.4909 244.899 83.7101 219.887 96.8718" stroke="#475569"/>
<path d="M118.779 -1.15793C107.241 0.380126 104.505 14.2274 114.762 12.9623C126.493 12.0183 126.502 23.0214 110.745 27.0825C99.3667 30.015 97.625 43.7548 109.208 43.3321C118.791 42.9824 115.895 51.5541 104.701 59.1734C95.9623 65.1217 98.163 67.4895 99.1464 71.8549C100.27 76.8438 104.48 83.4171 94.6769 83.5633" stroke="#475569"/>
<path d="M243.855 -14.2913C223.564 -3.16126 221.738 3.50661 238.623 4.09928C257.988 5.46471 256.323 11.9653 233.392 22.4898C210.902 32.2997 209.134 38.9612 228.305 41.0056C240.164 40.4934 238.329 46.8509 223.045 59.4974C207.421 73.7473 205.885 79.7399 217.722 77.8033C237.999 77.416 236.581 83.656 212.464 96.052" stroke="#FCFCF4"/>
<path d="M235.977 -13.5104C216.232 -2.97984 214.349 4.13673 230.821 4.61329C249.708 5.83438 248.148 12.6164 225.665 22.7369C203.87 32.117 202.104 39.2209 220.801 41.1111C232.517 40.609 230.615 47.1049 215.587 59.4372C200.394 73.1683 199.092 78.9343 210.25 77.3916C229.33 77.3403 228.264 83.6011 205.041 95.2316" stroke="#F9F9EA"/>
<path d="M228.098 -12.7272C208.901 -2.79619 206.961 4.7691 223.018 5.12955C241.429 6.2063 239.973 13.2697 217.938 22.9863C196.838 31.9365 195.073 39.4828 213.296 41.2189C224.87 40.7269 222.902 47.3612 208.13 59.3793C193.367 72.5915 192.298 78.131 202.778 76.9822C220.661 77.2669 219.946 83.5485 197.618 94.4134" stroke="#F6F6DF"/>
<path d="M220.221 -11.9447C201.571 -2.61322 199.574 5.40079 215.217 5.64512C233.15 6.57753 231.799 13.9223 210.213 23.235C189.806 31.7554 188.044 39.7441 205.792 41.3259C217.224 40.8441 215.19 47.6168 200.673 59.3207C186.34 72.0141 185.505 77.327 195.307 76.5721C211.992 77.1927 211.63 83.4952 190.196 93.5944" stroke="#F3F3D5"/>
<path d="M212.344 -11.1619C194.241 -2.42991 192.187 6.03281 207.415 6.16103C224.871 6.9491 223.625 14.5753 202.487 23.484C182.776 31.5745 181.014 40.0056 198.288 41.4333C209.578 40.9616 207.478 47.8727 193.216 59.2624C179.314 71.4369 178.712 76.5233 187.836 76.1622C203.324 77.1189 203.313 83.4423 182.774 92.7758" stroke="#F0EFCA"/>
<path d="M204.467 -10.3788C186.911 -2.24623 184.801 6.66521 199.615 6.67731C216.594 7.32104 215.452 15.2287 194.763 23.7334C175.745 31.3941 173.986 40.2676 190.786 41.541C201.933 41.0795 199.766 48.129 185.76 59.2045C172.288 70.8602 171.92 75.72 180.365 75.7528C194.657 77.0455 194.998 83.3897 175.354 91.9577" stroke="#EDECC0"/>
<path d="M196.591 -9.59518C179.582 -2.06215 177.415 7.298 191.815 7.19399C208.317 7.69338 207.28 15.8824 187.038 23.9832C168.716 31.214 166.958 40.5299 183.283 41.6492C194.289 41.1978 192.055 48.3857 178.305 59.147C165.263 70.2838 165.129 74.9171 172.896 75.3438C185.99 76.9725 186.683 83.3375 167.933 91.1398" stroke="#E9E9B5"/>
<path d="M188.716 -8.81116C172.254 -1.87763 170.03 7.93124 184.015 7.71112C200.04 8.06617 199.108 16.5366 179.315 24.2334C161.687 31.0344 159.93 40.7927 175.782 41.7578C186.645 41.3166 184.345 48.6428 170.851 59.0899C158.239 69.7079 158.338 74.1146 165.427 74.9352C177.324 76.8999 178.368 83.2858 160.513 90.3225" stroke="#E6E6AB"/>
<path d="M180.841 -8.02665C164.927 -1.69261 162.646 8.56496 176.217 8.22873C191.765 8.43945 190.937 17.1913 171.592 24.4841C154.658 30.8553 152.904 41.056 168.281 41.8668C179.002 41.4359 176.636 48.9004 163.397 59.0334C151.216 69.1325 151.548 73.3127 157.959 74.5271C168.659 76.8279 170.055 83.2345 153.095 89.5056" stroke="#E3E3A0"/>
<path d="M172.968 -7.24159C157.6 -1.50706 155.262 9.19923 168.419 8.74689C183.49 8.81326 182.766 17.8465 163.871 24.7354C147.631 30.6767 145.878 41.3198 160.781 41.9765C171.359 41.5556 168.927 49.1586 155.944 58.9773C144.193 68.5576 144.759 72.5112 150.491 74.1195C159.994 76.7563 161.742 83.1838 145.676 88.6893" stroke="#E0E096"/>
<path d="M165.095 -6.45593C150.274 -1.3209 147.88 9.83411 160.622 9.26565C175.216 9.18769 174.597 18.5024 156.15 24.9872C140.605 30.4988 138.853 41.5842 153.282 42.0867C163.718 41.676 161.22 49.4174 148.492 58.9219C137.172 67.9833 137.971 71.7104 143.025 73.7126C151.331 76.6854 153.43 83.1337 138.259 87.8736" stroke="#DDDD8B"/>
<path d="M157.365 -5.57986C143.091 -1.04432 140.64 10.5594 152.968 9.87483C167.085 9.65252 166.57 19.2486 148.571 25.3295C133.721 30.4112 131.971 41.9391 145.925 42.2873C156.219 41.8868 153.655 49.7666 141.183 58.9569C130.292 67.4995 131.326 71 135.701 73.396C142.81 76.7049 145.261 83.174 130.985 87.1483" stroke="#DADA81"/>
<path d="M149.647 -4.69547C135.921 -0.75943 133.413 11.293 145.327 10.4923C158.966 10.1257 158.557 20.0032 141.006 25.6801C126.85 30.332 125.102 42.3022 138.582 42.4963C148.733 42.106 146.103 50.1241 133.886 59.0002C123.426 67.0239 124.693 70.2979 128.39 73.0878C134.302 76.7327 137.105 83.2226 123.723 86.4313" stroke="#D7D776"/>
<path d="M141.93 -3.81104C128.751 -0.474496 126.186 12.0266 137.685 11.1099C150.848 10.5989 150.543 20.7578 133.441 26.0307C119.979 30.2528 118.232 42.6654 131.238 42.7053C141.248 42.3251 138.551 50.4816 126.59 59.0435C116.56 66.5484 118.06 69.5958 121.079 72.7796C125.794 76.7605 128.948 83.2713 116.461 85.7143" stroke="#D4D36C"/>
<path d="M134.213 -2.92705C121.581 -0.190002 118.959 12.7599 130.044 11.7269C142.729 11.0716 142.529 21.5119 125.875 26.3809C113.108 30.1732 111.363 43.0282 123.895 42.9139C133.762 42.5438 130.999 50.8387 119.294 59.0864C109.694 66.0725 111.428 68.8933 113.768 72.471C117.286 76.7879 120.792 83.3195 109.2 84.9969" stroke="#D1D061"/>
<path d="M126.496 -2.04301C114.411 0.0945437 111.732 13.4931 122.403 12.3441C134.611 11.5444 134.516 22.2662 118.31 26.7312C106.237 30.0936 104.494 43.391 116.551 43.1225C126.276 42.7626 123.447 51.1959 111.997 59.1294C102.828 65.5966 104.795 68.1909 106.457 72.1624C108.778 76.8153 112.636 83.3678 101.938 84.2796" stroke="#CECD57"/>
<path d="M243.855 -14.2913C223.564 -3.16126 221.738 3.50661 238.623 4.09928C257.988 5.46471 256.323 11.9653 233.392 22.4898C210.902 32.2997 209.134 38.9612 228.305 41.0056C240.164 40.4934 238.329 46.8509 223.045 59.4974C207.421 73.7473 205.885 79.7399 217.722 77.8033C237.999 77.416 236.581 83.656 212.464 96.052" stroke="#475569"/>
<path d="M235.977 -13.5104C216.232 -2.97984 214.349 4.13673 230.821 4.61329C249.708 5.83438 248.148 12.6164 225.665 22.7369C203.87 32.117 202.104 39.2209 220.801 41.1111C232.517 40.609 230.615 47.1049 215.587 59.4372C200.394 73.1683 199.092 78.9343 210.25 77.3916C229.33 77.3403 228.264 83.6011 205.041 95.2316" stroke="#475569"/>
<path d="M228.098 -12.7272C208.901 -2.79619 206.961 4.7691 223.018 5.12955C241.429 6.2063 239.973 13.2697 217.938 22.9863C196.838 31.9365 195.073 39.4828 213.296 41.2189C224.87 40.7269 222.902 47.3612 208.13 59.3793C193.367 72.5915 192.298 78.131 202.778 76.9822C220.661 77.2669 219.946 83.5485 197.618 94.4134" stroke="#475569"/>
<path d="M220.221 -11.9447C201.571 -2.61322 199.574 5.40079 215.217 5.64512C233.15 6.57753 231.799 13.9223 210.213 23.235C189.806 31.7554 188.044 39.7441 205.792 41.3259C217.224 40.8441 215.19 47.6168 200.673 59.3207C186.34 72.0141 185.505 77.327 195.307 76.5721C211.992 77.1927 211.63 83.4952 190.196 93.5944" stroke="#475569"/>
<path d="M212.344 -11.1619C194.241 -2.42991 192.187 6.03281 207.415 6.16103C224.871 6.9491 223.625 14.5753 202.487 23.484C182.776 31.5745 181.014 40.0056 198.288 41.4333C209.578 40.9616 207.478 47.8727 193.216 59.2624C179.314 71.4369 178.712 76.5233 187.836 76.1622C203.324 77.1189 203.313 83.4423 182.774 92.7758" stroke="#475569"/>
<path d="M204.467 -10.3788C186.911 -2.24623 184.801 6.66521 199.615 6.67731C216.594 7.32104 215.452 15.2287 194.763 23.7334C175.745 31.3941 173.986 40.2676 190.786 41.541C201.933 41.0795 199.766 48.129 185.76 59.2045C172.288 70.8602 171.92 75.72 180.365 75.7528C194.657 77.0455 194.998 83.3897 175.354 91.9577" stroke="#475569"/>
<path d="M196.591 -9.59518C179.582 -2.06215 177.415 7.298 191.815 7.19399C208.317 7.69338 207.28 15.8824 187.038 23.9832C168.716 31.214 166.958 40.5299 183.283 41.6492C194.289 41.1978 192.055 48.3857 178.305 59.147C165.263 70.2838 165.129 74.9171 172.896 75.3438C185.99 76.9725 186.683 83.3375 167.933 91.1398" stroke="#475569"/>
<path d="M188.716 -8.81116C172.254 -1.87763 170.03 7.93124 184.015 7.71112C200.04 8.06617 199.108 16.5366 179.315 24.2334C161.687 31.0344 159.93 40.7927 175.782 41.7578C186.645 41.3166 184.345 48.6428 170.851 59.0899C158.239 69.7079 158.338 74.1146 165.427 74.9352C177.324 76.8999 178.368 83.2858 160.513 90.3225" stroke="#475569"/>
<path d="M180.841 -8.02665C164.927 -1.69261 162.646 8.56496 176.217 8.22873C191.765 8.43945 190.937 17.1913 171.592 24.4841C154.658 30.8553 152.904 41.056 168.281 41.8668C179.002 41.4359 176.636 48.9004 163.397 59.0334C151.216 69.1325 151.548 73.3127 157.959 74.5271C168.659 76.8279 170.055 83.2345 153.095 89.5056" stroke="#475569"/>
<path d="M172.968 -7.24159C157.6 -1.50706 155.262 9.19923 168.419 8.74689C183.49 8.81326 182.766 17.8465 163.871 24.7354C147.631 30.6767 145.878 41.3198 160.781 41.9765C171.359 41.5556 168.927 49.1586 155.944 58.9773C144.193 68.5576 144.759 72.5112 150.491 74.1195C159.994 76.7563 161.742 83.1838 145.676 88.6893" stroke="#475569"/>
<path d="M165.095 -6.45593C150.274 -1.3209 147.88 9.83411 160.622 9.26565C175.216 9.18769 174.597 18.5024 156.15 24.9872C140.605 30.4988 138.853 41.5842 153.282 42.0867C163.718 41.676 161.22 49.4174 148.492 58.9219C137.172 67.9833 137.971 71.7104 143.025 73.7126C151.331 76.6854 153.43 83.1337 138.259 87.8736" stroke="#475569"/>
<path d="M157.365 -5.57986C143.091 -1.04432 140.64 10.5594 152.968 9.87483C167.085 9.65252 166.57 19.2486 148.571 25.3295C133.721 30.4112 131.971 41.9391 145.925 42.2873C156.219 41.8868 153.655 49.7666 141.183 58.9569C130.292 67.4995 131.326 71 135.701 73.396C142.81 76.7049 145.261 83.174 130.985 87.1483" stroke="#475569"/>
<path d="M149.647 -4.69547C135.921 -0.75943 133.413 11.293 145.327 10.4923C158.966 10.1257 158.557 20.0032 141.006 25.6801C126.85 30.332 125.102 42.3022 138.582 42.4963C148.733 42.106 146.103 50.1241 133.886 59.0002C123.426 67.0239 124.693 70.2979 128.39 73.0878C134.302 76.7327 137.105 83.2226 123.723 86.4313" stroke="#475569"/>
<path d="M141.93 -3.81104C128.751 -0.474496 126.186 12.0266 137.685 11.1099C150.848 10.5989 150.543 20.7578 133.441 26.0307C119.979 30.2528 118.232 42.6654 131.238 42.7053C141.248 42.3251 138.551 50.4816 126.59 59.0435C116.56 66.5484 118.06 69.5958 121.079 72.7796C125.794 76.7605 128.948 83.2713 116.461 85.7143" stroke="#475569"/>
<path d="M134.213 -2.92705C121.581 -0.190002 118.959 12.7599 130.044 11.7269C142.729 11.0716 142.529 21.5119 125.875 26.3809C113.108 30.1732 111.363 43.0282 123.895 42.9139C133.762 42.5438 130.999 50.8387 119.294 59.0864C109.694 66.0725 111.428 68.8933 113.768 72.471C117.286 76.7879 120.792 83.3195 109.2 84.9969" stroke="#475569"/>
<path d="M126.496 -2.04301C114.411 0.0945437 111.732 13.4931 122.403 12.3441C134.611 11.5444 134.516 22.2662 118.31 26.7312C106.237 30.0936 104.494 43.391 116.551 43.1225C126.276 42.7626 123.447 51.1959 111.997 59.1294C102.828 65.5966 104.795 68.1909 106.457 72.1624C108.778 76.8153 112.636 83.3678 101.938 84.2796" stroke="#475569"/>
</g>
<mask id="mask2_2119_35133" style="mask-type:alpha" maskUnits="userSpaceOnUse" x="232" y="0" width="116" height="86">
<rect x="232" width="116" height="85.3455" fill="#C4C4C4"/>
</mask>
<g mask="url(#mask2_2119_35133)">
<path d="M212.266 -15.0729C233.104 -3.34339 234.873 2.87576 217.573 3.58455C197.732 5.09431 199.501 11.3135 222.881 22.242C246.065 32.4817 247.835 38.7008 228.189 40.8994C216.188 40.377 217.957 46.5961 233.497 59.5569C249.551 74.3256 251.32 80.5448 238.805 78.2143C217.331 77.4909 219.101 83.7101 244.113 96.8718" stroke="#475569"/>
<path d="M345.221 -1.15793C356.759 0.380126 359.495 14.2274 349.238 12.9623C337.507 12.0183 337.498 23.0214 353.255 27.0825C364.633 30.015 366.375 43.7548 354.792 43.3321C345.209 42.9824 348.105 51.5541 359.299 59.1734C368.038 65.1217 365.837 67.4895 364.854 71.8549C363.73 76.8438 359.52 83.4171 369.323 83.5633" stroke="#475569"/>
<path d="M220.145 -14.2913C240.436 -3.16126 242.262 3.50661 225.377 4.09928C206.012 5.46471 207.677 11.9653 230.609 22.4898C253.098 32.2997 254.866 38.9612 235.695 41.0056C223.836 40.4934 225.671 46.8509 240.955 59.4974C256.579 73.7473 258.115 79.7399 246.278 77.8033C226.001 77.416 227.419 83.656 251.536 96.052" stroke="#FCFCF4"/>
<path d="M228.023 -13.5104C247.768 -2.97984 249.651 4.13673 233.179 4.61329C214.292 5.83438 215.852 12.6164 238.335 22.7369C260.13 32.117 261.896 39.2209 243.199 41.1111C231.483 40.609 233.385 47.1049 248.413 59.4372C263.606 73.1683 264.909 78.9343 253.75 77.3916C234.67 77.3403 235.736 83.6011 258.959 95.2316" stroke="#F9F9EA"/>
<path d="M235.901 -12.7272C255.099 -2.79619 257.039 4.7691 240.982 5.12955C222.571 6.2063 224.027 13.2697 246.062 22.9863C267.162 31.9365 268.927 39.4828 250.704 41.2189C239.13 40.7269 241.098 47.3612 255.87 59.3793C270.633 72.5915 271.702 78.131 261.222 76.9822C243.339 77.2669 244.054 83.5485 266.382 94.4134" stroke="#F6F6DF"/>
<path d="M243.779 -11.9447C262.429 -2.61322 264.426 5.40079 248.783 5.64512C230.85 6.57753 232.201 13.9223 253.787 23.235C274.194 31.7554 275.956 39.7441 258.208 41.3259C246.776 40.8441 248.81 47.6168 263.327 59.3207C277.66 72.0141 278.495 77.327 268.693 76.5721C252.008 77.1927 252.37 83.4952 273.804 93.5944" stroke="#F3F3D5"/>
<path d="M251.656 -11.1619C269.759 -2.42991 271.813 6.03281 256.585 6.16103C239.129 6.9491 240.375 14.5753 261.513 23.484C281.224 31.5745 282.986 40.0056 265.712 41.4333C254.422 40.9616 256.522 47.8727 270.784 59.2624C284.686 71.4369 285.288 76.5233 276.164 76.1622C260.676 77.1189 260.687 83.4423 281.226 92.7758" stroke="#F0EFCA"/>
<path d="M259.533 -10.3788C277.089 -2.24623 279.199 6.66521 264.385 6.67731C247.406 7.32104 248.548 15.2287 269.237 23.7334C288.255 31.3941 290.014 40.2676 273.214 41.541C262.067 41.0795 264.234 48.129 278.24 59.2045C291.712 70.8602 292.08 75.72 283.635 75.7528C269.343 77.0455 269.002 83.3897 288.646 91.9577" stroke="#EDECC0"/>
<path d="M267.409 -9.59518C284.418 -2.06215 286.585 7.298 272.185 7.19399C255.683 7.69338 256.72 15.8824 276.962 23.9832C295.284 31.214 297.042 40.5299 280.717 41.6492C269.711 41.1978 271.945 48.3857 285.695 59.147C298.737 70.2838 298.871 74.9171 291.104 75.3438C278.01 76.9725 277.317 83.3375 296.067 91.1398" stroke="#E9E9B5"/>
<path d="M275.284 -8.81116C291.746 -1.87763 293.97 7.93124 279.985 7.71112C263.96 8.06617 264.892 16.5366 284.685 24.2334C302.313 31.0344 304.07 40.7927 288.218 41.7578C277.355 41.3166 279.655 48.6428 293.149 59.0899C305.761 69.7079 305.662 74.1146 298.573 74.9352C286.676 76.8999 285.632 83.2858 303.487 90.3225" stroke="#E6E6AB"/>
<path d="M283.159 -8.02665C299.073 -1.69261 301.354 8.56496 287.783 8.22873C272.235 8.43945 273.063 17.1913 292.408 24.4841C309.342 30.8553 311.096 41.056 295.719 41.8668C284.998 41.4359 287.364 48.9004 300.603 59.0334C312.784 69.1325 312.452 73.3127 306.041 74.5271C295.341 76.8279 293.945 83.2345 310.905 89.5056" stroke="#E3E3A0"/>
<path d="M291.032 -7.24159C306.4 -1.50706 308.738 9.19923 295.581 8.74689C280.51 8.81326 281.234 17.8465 300.129 24.7354C316.369 30.6767 318.122 41.3198 303.219 41.9765C292.641 41.5556 295.073 49.1586 308.056 58.9773C319.807 68.5576 319.241 72.5112 313.509 74.1195C304.006 76.7563 302.258 83.1838 318.324 88.6893" stroke="#E0E096"/>
<path d="M298.905 -6.45593C313.726 -1.3209 316.12 9.83411 303.378 9.26565C288.784 9.18769 289.403 18.5024 307.85 24.9872C323.395 30.4988 325.147 41.5842 310.718 42.0867C300.282 41.676 302.78 49.4174 315.508 58.9219C326.828 67.9833 326.029 71.7104 320.975 73.7126C312.669 76.6854 310.57 83.1337 325.741 87.8736" stroke="#DDDD8B"/>
<path d="M306.635 -5.57986C320.909 -1.04432 323.36 10.5594 311.032 9.87483C296.916 9.65252 297.43 19.2486 315.429 25.3295C330.279 30.4112 332.029 41.9391 318.075 42.2873C307.781 41.8868 310.345 49.7666 322.817 58.9569C333.708 67.4995 332.675 71 328.299 73.396C321.19 76.7049 318.739 83.174 333.015 87.1483" stroke="#DADA81"/>
<path d="M314.353 -4.69547C328.079 -0.75943 330.587 11.293 318.673 10.4923C305.034 10.1257 305.443 20.0032 322.994 25.6801C337.15 30.332 338.898 42.3022 325.418 42.4963C315.267 42.106 317.897 50.1241 330.114 59.0002C340.574 67.0239 339.307 70.2979 335.61 73.0878C329.698 76.7327 326.895 83.2226 340.277 86.4313" stroke="#D7D776"/>
<path d="M322.07 -3.81104C335.249 -0.474496 337.814 12.0266 326.315 11.1099C313.152 10.5989 313.457 20.7578 330.559 26.0307C344.021 30.2528 345.768 42.6654 332.762 42.7053C322.752 42.3251 325.449 50.4816 337.41 59.0435C347.44 66.5484 345.94 69.5958 342.921 72.7796C338.206 76.7605 335.052 83.2713 347.539 85.7143" stroke="#D4D36C"/>
<path d="M329.787 -2.92705C342.419 -0.190002 345.041 12.7599 333.956 11.7269C321.271 11.0716 321.471 21.5119 338.125 26.3809C350.892 30.1732 352.637 43.0282 340.106 42.9139C330.238 42.5438 333.001 50.8387 344.706 59.0864C354.306 66.0725 352.572 68.8933 350.232 72.471C346.714 76.7879 343.208 83.3195 354.8 84.9969" stroke="#D1D061"/>
<path d="M337.504 -2.04301C349.589 0.0945437 352.268 13.4931 341.597 12.3441C329.389 11.5444 329.484 22.2662 345.69 26.7312C357.763 30.0936 359.506 43.391 347.449 43.1225C337.724 42.7626 340.553 51.1959 352.003 59.1294C361.172 65.5966 359.205 68.1909 357.543 72.1624C355.222 76.8153 351.364 83.3678 362.062 84.2796" stroke="#CECD57"/>
<path d="M220.145 -14.2913C240.436 -3.16126 242.262 3.50661 225.377 4.09928C206.012 5.46471 207.677 11.9653 230.609 22.4898C253.098 32.2997 254.866 38.9612 235.695 41.0056C223.836 40.4934 225.671 46.8509 240.955 59.4974C256.579 73.7473 258.115 79.7399 246.278 77.8033C226.001 77.416 227.419 83.656 251.536 96.052" stroke="#475569"/>
<path d="M228.023 -13.5104C247.768 -2.97984 249.651 4.13673 233.179 4.61329C214.292 5.83438 215.852 12.6164 238.335 22.7369C260.13 32.117 261.896 39.2209 243.199 41.1111C231.483 40.609 233.385 47.1049 248.413 59.4372C263.606 73.1683 264.909 78.9343 253.75 77.3916C234.67 77.3403 235.736 83.6011 258.959 95.2316" stroke="#475569"/>
<path d="M235.901 -12.7272C255.099 -2.79619 257.039 4.7691 240.982 5.12955C222.571 6.2063 224.027 13.2697 246.062 22.9863C267.162 31.9365 268.927 39.4828 250.704 41.2189C239.13 40.7269 241.098 47.3612 255.87 59.3793C270.633 72.5915 271.702 78.131 261.222 76.9822C243.339 77.2669 244.054 83.5485 266.382 94.4134" stroke="#475569"/>
<path d="M243.779 -11.9447C262.429 -2.61322 264.426 5.40079 248.783 5.64512C230.85 6.57753 232.201 13.9223 253.787 23.235C274.194 31.7554 275.956 39.7441 258.208 41.3259C246.776 40.8441 248.81 47.6168 263.327 59.3207C277.66 72.0141 278.495 77.327 268.693 76.5721C252.008 77.1927 252.37 83.4952 273.804 93.5944" stroke="#475569"/>
<path d="M251.656 -11.1619C269.759 -2.42991 271.813 6.03281 256.585 6.16103C239.129 6.9491 240.375 14.5753 261.513 23.484C281.224 31.5745 282.986 40.0056 265.712 41.4333C254.422 40.9616 256.522 47.8727 270.784 59.2624C284.686 71.4369 285.288 76.5233 276.164 76.1622C260.676 77.1189 260.687 83.4423 281.226 92.7758" stroke="#475569"/>
<path d="M259.533 -10.3788C277.089 -2.24623 279.199 6.66521 264.385 6.67731C247.406 7.32104 248.548 15.2287 269.237 23.7334C288.255 31.3941 290.014 40.2676 273.214 41.541C262.067 41.0795 264.234 48.129 278.24 59.2045C291.712 70.8602 292.08 75.72 283.635 75.7528C269.343 77.0455 269.002 83.3897 288.646 91.9577" stroke="#475569"/>
<path d="M267.409 -9.59518C284.418 -2.06215 286.585 7.298 272.185 7.19399C255.683 7.69338 256.72 15.8824 276.962 23.9832C295.284 31.214 297.042 40.5299 280.717 41.6492C269.711 41.1978 271.945 48.3857 285.695 59.147C298.737 70.2838 298.871 74.9171 291.104 75.3438C278.01 76.9725 277.317 83.3375 296.067 91.1398" stroke="#475569"/>
<path d="M275.284 -8.81116C291.746 -1.87763 293.97 7.93124 279.985 7.71112C263.96 8.06617 264.892 16.5366 284.685 24.2334C302.313 31.0344 304.07 40.7927 288.218 41.7578C277.355 41.3166 279.655 48.6428 293.149 59.0899C305.761 69.7079 305.662 74.1146 298.573 74.9352C286.676 76.8999 285.632 83.2858 303.487 90.3225" stroke="#475569"/>
<path d="M283.159 -8.02665C299.073 -1.69261 301.354 8.56496 287.783 8.22873C272.235 8.43945 273.063 17.1913 292.408 24.4841C309.342 30.8553 311.096 41.056 295.719 41.8668C284.998 41.4359 287.364 48.9004 300.603 59.0334C312.784 69.1325 312.452 73.3127 306.041 74.5271C295.341 76.8279 293.945 83.2345 310.905 89.5056" stroke="#475569"/>
<path d="M291.032 -7.24159C306.4 -1.50706 308.738 9.19923 295.581 8.74689C280.51 8.81326 281.234 17.8465 300.129 24.7354C316.369 30.6767 318.122 41.3198 303.219 41.9765C292.641 41.5556 295.073 49.1586 308.056 58.9773C319.807 68.5576 319.241 72.5112 313.509 74.1195C304.006 76.7563 302.258 83.1838 318.324 88.6893" stroke="#475569"/>
<path d="M298.905 -6.45593C313.726 -1.3209 316.12 9.83411 303.378 9.26565C288.784 9.18769 289.403 18.5024 307.85 24.9872C323.395 30.4988 325.147 41.5842 310.718 42.0867C300.282 41.676 302.78 49.4174 315.508 58.9219C326.828 67.9833 326.029 71.7104 320.975 73.7126C312.669 76.6854 310.57 83.1337 325.741 87.8736" stroke="#475569"/>
<path d="M306.635 -5.57986C320.909 -1.04432 323.36 10.5594 311.032 9.87483C296.916 9.65252 297.43 19.2486 315.429 25.3295C330.279 30.4112 332.029 41.9391 318.075 42.2873C307.781 41.8868 310.345 49.7666 322.817 58.9569C333.708 67.4995 332.675 71 328.299 73.396C321.19 76.7049 318.739 83.174 333.015 87.1483" stroke="#475569"/>
<path d="M314.353 -4.69547C328.079 -0.75943 330.587 11.293 318.673 10.4923C305.034 10.1257 305.443 20.0032 322.994 25.6801C337.15 30.332 338.898 42.3022 325.418 42.4963C315.267 42.106 317.897 50.1241 330.114 59.0002C340.574 67.0239 339.307 70.2979 335.61 73.0878C329.698 76.7327 326.895 83.2226 340.277 86.4313" stroke="#475569"/>
<path d="M322.07 -3.81104C335.249 -0.474496 337.814 12.0266 326.315 11.1099C313.152 10.5989 313.457 20.7578 330.559 26.0307C344.021 30.2528 345.768 42.6654 332.762 42.7053C322.752 42.3251 325.449 50.4816 337.41 59.0435C347.44 66.5484 345.94 69.5958 342.921 72.7796C338.206 76.7605 335.052 83.2713 347.539 85.7143" stroke="#475569"/>
<path d="M329.787 -2.92705C342.419 -0.190002 345.041 12.7599 333.956 11.7269C321.271 11.0716 321.471 21.5119 338.125 26.3809C350.892 30.1732 352.637 43.0282 340.106 42.9139C330.238 42.5438 333.001 50.8387 344.706 59.0864C354.306 66.0725 352.572 68.8933 350.232 72.471C346.714 76.7879 343.208 83.3195 354.8 84.9969" stroke="#475569"/>
<path d="M337.504 -2.04301C349.589 0.0945437 352.268 13.4931 341.597 12.3441C329.389 11.5444 329.484 22.2662 345.69 26.7312C357.763 30.0936 359.506 43.391 347.449 43.1225C337.724 42.7626 340.553 51.1959 352.003 59.1294C361.172 65.5966 359.205 68.1909 357.543 72.1624C355.222 76.8153 351.364 83.3678 362.062 84.2796" stroke="#475569"/>
</g>
</svg>
