<svg width="240" height="129" viewBox="0 0 240 129" fill="none" xmlns="http://www.w3.org/2000/svg">
<rect x="1" y="1.04004" width="238" height="126.018" stroke="#475569" stroke-width="2"/>
<mask id="mask0_660_3025" style="mask-type:alpha" maskUnits="userSpaceOnUse" x="0" y="0" width="240" height="129">
<rect y="0.0400391" width="240" height="128.018" fill="#C4C4C4"/>
</mask>
<g mask="url(#mask0_660_3025)">
<path d="M-40.8297 -22.5693C2.28443 -4.97504 5.945 4.35368 -29.848 5.41686C-70.899 7.68151 -67.2384 17.0102 -18.8663 33.403C29.1004 48.7626 32.761 58.0913 -7.88456 61.3892C-32.7142 60.6055 -29.0536 69.9343 3.09716 89.3754C36.3121 111.528 39.9726 120.857 14.0789 117.362C-30.3491 116.276 -26.6886 125.605 25.0606 145.348" stroke="#475569" stroke-width="2"/>
<path d="M234.25 -1.69685C258.122 0.610231 263.782 21.3812 242.561 19.4835C218.29 18.0675 218.271 34.5722 250.872 40.6638C274.414 45.0626 278.017 65.6723 254.053 65.0383C234.226 64.5137 240.217 77.3712 263.377 88.8001C281.457 97.7227 276.904 101.274 274.87 107.822C272.544 115.306 263.834 125.166 284.117 125.385" stroke="#475569" stroke-width="2"/>
<path d="M-24.5282 -21.3971C17.454 -4.70208 21.2322 5.29971 -13.7036 6.18872C-53.7676 8.23687 -50.3234 17.9877 -2.87899 33.7746C43.6509 48.4894 47.3081 58.4817 7.64381 61.5483C-16.8915 60.7798 -13.0938 70.3161 18.528 89.286C50.8527 110.661 54.0301 119.65 29.5398 116.745C-12.4116 116.164 -9.47869 125.524 40.4195 144.118" stroke="#FCFCF4" stroke-width="2"/>
<path d="M-8.22774 -20.2245C32.6226 -4.42874 36.5184 6.24613 2.43979 6.96096C-36.6371 8.7926 -33.4094 18.9656 13.1073 34.1465C58.2005 48.2165 61.8543 58.8724 23.1712 61.7077C-1.06981 60.9545 2.86498 70.6984 33.9579 89.1969C65.3923 109.793 68.0866 118.443 44.9998 116.129C5.52502 116.052 7.73024 125.443 55.7774 142.888" stroke="#F9F9EA" stroke-width="2"/>
<path d="M8.072 -19.051C47.7904 -4.15449 51.8038 7.19344 18.5824 7.73412C-19.5075 9.34924 -16.4961 19.9443 29.0929 34.5193C72.7492 47.9446 76.3997 59.264 38.6979 61.8681C14.7511 61.1301 18.823 71.0816 49.3871 89.1088C79.9312 108.927 82.1423 117.236 60.459 115.513C23.4609 115.94 24.9384 125.363 71.1346 141.66" stroke="#F6F6DF" stroke-width="2"/>
<path d="M24.3708 -17.8771C62.9573 -3.87978 67.0883 8.14122 34.7241 8.50773C-2.37877 9.90634 0.416189 20.9235 45.0775 34.8925C87.297 47.6731 90.9442 59.6562 54.2235 62.0289C30.5711 61.3062 34.7801 71.4652 64.8152 89.0211C94.4691 108.061 96.197 116.031 75.9172 114.898C41.3957 115.829 42.1456 125.283 86.4908 140.432" stroke="#F3F3D5" stroke-width="2"/>
<path d="M40.6684 -16.7031C78.123 -3.60506 82.3716 9.08902 50.8646 9.28135C14.7488 10.4635 17.3273 21.9028 61.0609 35.2658C101.844 47.4016 105.487 60.0483 69.748 62.1897C46.3899 61.4822 50.736 71.8488 80.2422 88.9334C109.006 107.195 110.251 114.825 91.3743 114.283C59.3294 115.718 59.3516 125.203 101.846 139.204" stroke="#F0EFCA" stroke-width="2"/>
<path d="M56.9647 -15.5286C93.2874 -3.32979 97.6536 10.0374 67.0038 10.0555C31.875 11.0211 34.2372 22.8825 77.043 35.6396C116.389 47.1307 120.029 60.4409 85.2712 62.3511C62.2074 61.6589 66.6906 72.233 95.6679 88.8463C123.541 106.33 124.303 113.62 106.83 113.669C77.2618 115.608 76.5563 125.124 117.2 137.976" stroke="#EDECC0" stroke-width="2"/>
<path d="M73.2598 -14.353C108.451 -3.05343 112.935 10.9868 83.1419 10.8308C49.0001 11.5799 51.1458 23.8634 93.0239 36.0145C130.933 46.8609 134.57 60.8347 100.793 62.5136C78.0237 61.8366 82.644 72.6183 111.092 88.7603C138.076 105.466 138.354 112.415 122.285 113.055C95.1931 115.499 93.7599 125.046 132.552 136.75" stroke="#E9E9B5" stroke-width="2"/>
<path d="M89.5536 -13.1772C123.612 -2.77688 128.214 11.9364 99.2785 11.6062C66.1238 12.1388 68.0531 24.8445 109.003 36.3896C145.476 46.5912 149.11 61.2286 116.314 62.6762C93.8386 62.0145 98.5961 73.0038 126.516 88.6745C152.608 104.601 152.404 111.212 137.738 112.442C113.123 115.389 110.962 124.968 147.903 135.523" stroke="#E6E6AB" stroke-width="2"/>
<path d="M105.845 -12.0002C138.772 -2.49912 143.492 12.8872 115.413 12.3829C83.2456 12.699 84.9585 25.8267 124.981 36.766C160.017 46.3228 163.647 61.6238 131.833 62.8401C109.652 62.1936 114.546 73.3905 141.937 88.5898C167.14 103.739 166.452 110.009 153.189 111.83C131.051 115.282 128.162 124.892 163.253 134.298" stroke="#E3E3A0" stroke-width="2"/>
<path d="M122.136 -10.8228C153.931 -2.22103 158.768 13.8384 131.547 13.1599C100.366 13.2594 101.862 26.8093 140.957 37.1426C174.556 46.0547 178.183 62.0193 147.35 63.0043C125.463 62.373 130.495 73.7775 157.357 88.5055C181.669 102.876 180.498 108.806 168.639 111.219C148.977 115.174 145.361 124.815 178.6 133.074" stroke="#E0E096" stroke-width="2"/>
<path d="M138.424 -9.64459C169.087 -1.94204 174.042 14.7905 147.678 13.9378C117.484 13.8208 118.764 27.7929 156.932 37.5202C189.094 45.7875 192.717 62.4156 162.865 63.1694C141.273 62.5533 146.442 74.1654 172.774 88.4221C196.197 102.014 194.542 107.605 184.087 110.608C166.902 115.067 162.558 124.74 193.946 131.85" stroke="#DDDD8B" stroke-width="2"/>
<path d="M154.418 -8.33024C183.949 -1.52693 189.021 15.8787 163.514 14.8518C134.308 14.5183 135.372 28.9125 172.611 38.0338C203.336 45.6564 206.957 62.9482 178.086 63.4706C156.788 62.8698 162.094 74.6894 187.897 88.4749C210.429 101.289 208.292 106.54 199.24 110.134C184.532 115.097 179.46 124.801 208.997 130.762" stroke="#DADA81" stroke-width="2"/>
<path d="M170.385 -7.00341C198.784 -1.09935 203.974 16.9793 179.324 15.7783C151.105 15.2283 151.952 30.0446 188.264 38.56C217.552 45.5378 221.169 63.4931 193.28 63.7843C172.276 63.1987 177.719 75.2259 202.994 88.5401C224.635 100.576 222.015 105.487 214.366 109.672C202.135 115.139 196.335 124.874 224.022 129.687" stroke="#D7D776" stroke-width="2"/>
<path d="M186.351 -5.67701C213.619 -0.672191 218.926 18.0795 195.134 16.7043C167.901 15.9379 168.532 31.1762 203.916 39.0857C231.768 45.4187 235.381 64.0377 208.473 64.0975C187.764 63.5272 193.344 75.762 218.09 88.6048C238.841 99.8622 235.737 104.433 229.492 109.209C219.737 115.18 213.21 124.947 239.046 128.611" stroke="#D4D36C" stroke-width="2"/>
<path d="M202.318 -4.35054C228.453 -0.244963 233.878 19.1798 210.943 17.6305C184.698 16.6475 185.112 32.308 219.568 39.6115C245.983 45.2998 249.594 64.5823 223.666 64.4109C203.251 63.8558 208.968 76.2982 233.186 88.6697C253.047 99.1488 249.46 103.38 244.618 108.747C237.34 115.222 230.085 125.019 254.07 127.535" stroke="#D1D061" stroke-width="2"/>
<path d="M218.284 -3.02398C243.288 0.182345 248.83 20.2802 226.752 18.5567C201.494 17.3572 201.692 33.4398 235.22 40.1373C260.199 45.1809 263.805 65.127 238.86 64.7243C218.739 64.1845 224.593 76.8344 248.281 88.7346C267.252 98.4354 263.182 102.327 259.744 108.284C254.942 115.264 246.96 125.092 269.093 126.46" stroke="#CECD57" stroke-width="2"/>
<path d="M-24.5282 -21.3971C17.454 -4.70208 21.2322 5.29971 -13.7036 6.18872C-53.7676 8.23687 -50.3234 17.9877 -2.87899 33.7746C43.6509 48.4894 47.3081 58.4817 7.64381 61.5483C-16.8915 60.7798 -13.0938 70.3161 18.528 89.286C50.8527 110.661 54.0301 119.65 29.5398 116.745C-12.4116 116.164 -9.47869 125.524 40.4195 144.118" stroke="#475569" stroke-width="2"/>
<path d="M-8.22774 -20.2245C32.6226 -4.42874 36.5184 6.24613 2.43979 6.96096C-36.6371 8.7926 -33.4094 18.9656 13.1073 34.1465C58.2005 48.2165 61.8543 58.8724 23.1712 61.7077C-1.06981 60.9545 2.86498 70.6984 33.9579 89.1969C65.3923 109.793 68.0866 118.443 44.9998 116.129C5.52502 116.052 7.73024 125.443 55.7774 142.888" stroke="#475569" stroke-width="2"/>
<path d="M8.072 -19.051C47.7904 -4.15449 51.8038 7.19344 18.5824 7.73412C-19.5075 9.34924 -16.4961 19.9443 29.0929 34.5193C72.7492 47.9446 76.3997 59.264 38.6979 61.8681C14.7511 61.1301 18.823 71.0816 49.3871 89.1088C79.9312 108.927 82.1423 117.236 60.459 115.513C23.4609 115.94 24.9384 125.363 71.1346 141.66" stroke="#475569" stroke-width="2"/>
<path d="M24.3708 -17.8771C62.9573 -3.87978 67.0883 8.14122 34.7241 8.50773C-2.37877 9.90634 0.416189 20.9235 45.0775 34.8925C87.297 47.6731 90.9442 59.6562 54.2235 62.0289C30.5711 61.3062 34.7801 71.4652 64.8152 89.0211C94.4691 108.061 96.197 116.031 75.9172 114.898C41.3957 115.829 42.1456 125.283 86.4908 140.432" stroke="#475569" stroke-width="2"/>
<path d="M40.6684 -16.7031C78.123 -3.60506 82.3716 9.08902 50.8646 9.28135C14.7488 10.4635 17.3273 21.9028 61.0609 35.2658C101.844 47.4016 105.487 60.0483 69.748 62.1897C46.3899 61.4822 50.736 71.8488 80.2422 88.9334C109.006 107.195 110.251 114.825 91.3743 114.283C59.3294 115.718 59.3516 125.203 101.846 139.204" stroke="#475569" stroke-width="2"/>
<path d="M56.9647 -15.5286C93.2874 -3.32979 97.6536 10.0374 67.0038 10.0555C31.875 11.0211 34.2372 22.8825 77.043 35.6396C116.389 47.1307 120.029 60.4409 85.2712 62.3511C62.2074 61.6589 66.6906 72.233 95.6679 88.8463C123.541 106.33 124.303 113.62 106.83 113.669C77.2618 115.608 76.5563 125.124 117.2 137.976" stroke="#475569" stroke-width="2"/>
<path d="M73.2598 -14.353C108.451 -3.05343 112.935 10.9868 83.1419 10.8308C49.0001 11.5799 51.1458 23.8634 93.0239 36.0145C130.933 46.8609 134.57 60.8347 100.793 62.5136C78.0237 61.8366 82.644 72.6183 111.092 88.7603C138.076 105.466 138.354 112.415 122.285 113.055C95.1931 115.499 93.7599 125.046 132.552 136.75" stroke="#475569" stroke-width="2"/>
<path d="M89.5536 -13.1772C123.612 -2.77688 128.214 11.9364 99.2785 11.6062C66.1238 12.1388 68.0531 24.8445 109.003 36.3896C145.476 46.5912 149.11 61.2286 116.314 62.6762C93.8386 62.0145 98.5961 73.0038 126.516 88.6745C152.608 104.601 152.404 111.212 137.738 112.442C113.123 115.389 110.962 124.968 147.903 135.523" stroke="#475569" stroke-width="2"/>
<path d="M105.845 -12.0002C138.772 -2.49912 143.492 12.8872 115.413 12.3829C83.2456 12.699 84.9585 25.8267 124.981 36.766C160.017 46.3228 163.647 61.6238 131.833 62.8401C109.652 62.1936 114.546 73.3905 141.937 88.5898C167.14 103.739 166.452 110.009 153.189 111.83C131.051 115.282 128.162 124.892 163.253 134.298" stroke="#475569" stroke-width="2"/>
<path d="M122.136 -10.8228C153.931 -2.22103 158.768 13.8384 131.547 13.1599C100.366 13.2594 101.862 26.8093 140.957 37.1426C174.556 46.0547 178.183 62.0193 147.35 63.0043C125.463 62.373 130.495 73.7775 157.357 88.5055C181.669 102.876 180.498 108.806 168.639 111.219C148.977 115.174 145.361 124.815 178.6 133.074" stroke="#475569" stroke-width="2"/>
<path d="M138.424 -9.64459C169.087 -1.94204 174.042 14.7905 147.678 13.9378C117.484 13.8208 118.764 27.7929 156.932 37.5202C189.094 45.7875 192.717 62.4156 162.865 63.1694C141.273 62.5533 146.442 74.1654 172.774 88.4221C196.197 102.014 194.542 107.605 184.087 110.608C166.902 115.067 162.558 124.74 193.946 131.85" stroke="#475569" stroke-width="2"/>
<path d="M154.418 -8.33024C183.949 -1.52693 189.021 15.8787 163.514 14.8518C134.308 14.5183 135.372 28.9125 172.611 38.0338C203.336 45.6564 206.957 62.9482 178.086 63.4706C156.788 62.8698 162.094 74.6894 187.897 88.4749C210.429 101.289 208.292 106.54 199.24 110.134C184.532 115.097 179.46 124.801 208.997 130.762" stroke="#475569" stroke-width="2"/>
<path d="M170.385 -7.00341C198.784 -1.09935 203.974 16.9793 179.324 15.7783C151.105 15.2283 151.952 30.0446 188.264 38.56C217.552 45.5378 221.169 63.4931 193.28 63.7843C172.276 63.1987 177.719 75.2259 202.994 88.5401C224.635 100.576 222.015 105.487 214.366 109.672C202.135 115.139 196.335 124.874 224.022 129.687" stroke="#475569" stroke-width="2"/>
<path d="M186.351 -5.67701C213.619 -0.672191 218.926 18.0795 195.134 16.7043C167.901 15.9379 168.532 31.1762 203.916 39.0857C231.768 45.4187 235.381 64.0377 208.473 64.0975C187.764 63.5272 193.344 75.762 218.09 88.6048C238.841 99.8622 235.737 104.433 229.492 109.209C219.737 115.18 213.21 124.947 239.046 128.611" stroke="#475569" stroke-width="2"/>
<path d="M202.318 -4.35054C228.453 -0.244963 233.878 19.1798 210.943 17.6305C184.698 16.6475 185.112 32.308 219.568 39.6115C245.983 45.2998 249.594 64.5823 223.666 64.4109C203.251 63.8558 208.968 76.2982 233.186 88.6697C253.047 99.1488 249.46 103.38 244.618 108.747C237.34 115.222 230.085 125.019 254.07 127.535" stroke="#475569" stroke-width="2"/>
<path d="M218.284 -3.02398C243.288 0.182345 248.83 20.2802 226.752 18.5567C201.494 17.3572 201.692 33.4398 235.22 40.1373C260.199 45.1809 263.805 65.127 238.86 64.7243C218.739 64.1845 224.593 76.8344 248.281 88.7346C267.252 98.4354 263.182 102.327 259.744 108.284C254.942 115.264 246.96 125.092 269.093 126.46" stroke="#475569" stroke-width="2"/>
</g>
</svg>
