<svg width="246" height="337" viewBox="0 0 246 337" fill="none" xmlns="http://www.w3.org/2000/svg">
<path d="M143.598 320.071C165.201 314.282 177.444 294.799 181.391 266.151C185.338 237.498 181.048 199.41 169.365 155.805C157.737 112.411 142.408 77.2804 124.649 54.3879C106.895 31.5014 86.5226 20.6402 64.9168 26.4295C43.2202 32.2431 30.9599 51.8456 27.004 80.5512C23.0474 109.263 27.3372 147.351 38.9646 190.745C50.6485 234.35 65.9777 269.481 83.7465 292.316C101.513 315.147 121.904 325.884 143.598 320.071ZM122.35 240.773C117.137 242.169 112.736 242.296 108.839 240.996C104.949 239.698 101.434 236.934 98.0751 232.309C91.3129 222.998 85.3726 206.428 78.3431 180.194C71.3137 153.96 68.1731 136.639 69.3741 125.195C69.9707 119.51 71.6323 115.359 74.3526 112.29C77.0767 109.216 80.952 107.125 86.1647 105.728C91.3296 104.344 95.6954 104.226 99.5648 105.532C103.43 106.836 106.927 109.604 110.276 114.234C117.016 123.551 122.957 140.122 129.986 166.356C137.015 192.59 140.156 209.912 138.978 221.351C138.393 227.034 136.747 231.18 134.053 234.242C131.354 237.308 127.515 239.389 122.35 240.773Z" stroke="url(#paint0_linear_637_2992)" stroke-width="2"/>
<path d="M156.154 316.706C177.757 310.918 190 291.434 193.947 262.786C197.895 234.134 193.605 196.045 181.921 152.44C170.294 109.046 154.965 73.9156 137.206 51.0232C119.452 28.1367 99.0792 17.2755 77.4734 23.0647C55.7768 28.8783 43.5165 48.4808 39.5607 77.1864C35.6041 105.898 39.8938 143.987 51.5212 187.381C63.2051 230.985 78.5344 266.117 96.3031 288.951C114.07 311.783 134.461 322.519 156.154 316.706ZM134.906 237.408C129.694 238.805 125.292 238.931 121.396 237.631C117.505 236.333 113.991 233.569 110.632 228.944C103.87 219.634 97.9292 203.063 90.8998 176.829C83.8703 150.595 80.7297 133.274 81.9307 121.83C82.5273 116.145 84.189 111.994 86.9092 108.925C89.6334 105.851 93.5087 103.76 98.7213 102.363C103.886 100.979 108.252 100.861 112.121 102.167C115.986 103.472 119.484 106.239 122.833 110.869C129.573 120.186 135.513 136.758 142.543 162.991C149.572 189.225 152.713 206.547 151.535 217.986C150.949 223.669 149.304 227.815 146.609 230.877C143.911 233.943 140.071 236.024 134.906 237.408Z" stroke="url(#paint1_linear_637_2992)" stroke-width="2"/>
<path d="M168.712 313.342C190.315 307.553 202.558 288.07 206.505 259.422C210.452 230.769 206.162 192.681 194.478 149.076C182.851 105.682 167.522 70.5514 149.763 47.6589C132.009 24.7724 111.636 13.9112 90.0306 19.7005C68.334 25.5141 56.0736 45.1166 52.1178 73.8222C48.1612 102.534 52.451 140.622 64.0784 184.016C75.7622 227.621 91.0915 262.752 108.86 285.587C126.627 308.418 147.018 319.155 168.712 313.342ZM147.464 234.044C142.251 235.44 137.849 235.567 133.953 234.267C130.063 232.969 126.548 230.205 123.189 225.58C116.427 216.269 110.486 199.699 103.457 173.465C96.4275 147.231 93.2869 129.91 94.4878 118.466C95.0845 112.781 96.7461 108.63 99.4663 105.561C102.191 102.487 106.066 100.396 111.278 98.9988C116.443 97.6148 120.809 97.4972 124.679 98.8031C128.543 100.107 132.041 102.875 135.39 107.505C142.13 116.822 148.07 133.393 155.1 159.627C162.129 185.861 165.27 203.183 164.092 214.622C163.506 220.305 161.861 224.451 159.166 227.513C156.468 230.579 152.629 232.66 147.464 234.044Z" stroke="url(#paint2_linear_637_2992)" stroke-width="2"/>
<path d="M181.269 309.977C202.872 304.189 215.115 284.705 219.062 256.057C223.009 227.405 218.719 189.316 207.035 145.711C195.408 102.317 180.079 67.1866 162.32 44.2942C144.566 21.4077 124.193 10.5465 102.588 16.3357C80.8911 22.1493 68.6308 41.7518 64.6749 70.4574C60.7183 99.1689 65.0081 137.258 76.6355 180.652C88.3194 224.256 103.649 259.388 121.417 282.222C139.184 305.054 159.575 315.79 181.269 309.977ZM160.021 230.679C154.808 232.076 150.406 232.202 146.51 230.902C142.62 229.604 139.105 226.84 135.746 222.215C128.984 212.905 123.044 196.334 116.014 170.1C108.985 143.866 105.844 126.545 107.045 115.101C107.642 109.416 109.303 105.265 112.023 102.196C114.748 99.1219 118.623 97.0308 123.836 95.634C129.001 94.2501 133.366 94.1324 137.236 95.4383C141.1 96.7426 144.598 99.5104 147.947 104.14C154.687 113.457 160.628 130.029 167.657 156.262C174.686 182.496 177.827 199.818 176.649 211.257C176.064 216.94 174.418 221.086 171.723 224.148C169.025 227.214 165.186 229.295 160.021 230.679Z" stroke="url(#paint3_linear_637_2992)" stroke-width="2"/>
<defs>
<linearGradient id="paint0_linear_637_2992" x1="39.9305" y1="190.487" x2="168.399" y2="156.064" gradientUnits="userSpaceOnUse">
<stop stop-color="white"/>
<stop offset="1" stop-color="#13B0EA" stop-opacity="0"/>
</linearGradient>
<linearGradient id="paint1_linear_637_2992" x1="52.4872" y1="187.122" x2="180.955" y2="152.699" gradientUnits="userSpaceOnUse">
<stop stop-color="white"/>
<stop offset="1" stop-color="#13B0EA" stop-opacity="0"/>
</linearGradient>
<linearGradient id="paint2_linear_637_2992" x1="65.0443" y1="183.758" x2="193.512" y2="149.335" gradientUnits="userSpaceOnUse">
<stop stop-color="white"/>
<stop offset="1" stop-color="#13B0EA" stop-opacity="0"/>
</linearGradient>
<linearGradient id="paint3_linear_637_2992" x1="77.6014" y1="180.393" x2="206.07" y2="145.97" gradientUnits="userSpaceOnUse">
<stop stop-color="white"/>
<stop offset="1" stop-color="#13B0EA" stop-opacity="0"/>
</linearGradient>
</defs>
</svg>
