<svg width="306" height="168" viewBox="0 0 306 168" fill="none" xmlns="http://www.w3.org/2000/svg">
<path d="M252.028 158.286C256.614 164.762 263.657 168 273.156 168C279.379 168 284.456 166.705 288.387 164.114C292.645 161.848 295.921 158.772 298.214 154.886C300.834 151 302.636 146.467 303.618 141.286C304.601 136.429 305.092 131.411 305.092 126.23C305.092 112.63 302.472 99.6782 297.231 87.3738C292.318 75.0694 285.439 64.0602 276.595 54.3462C267.751 44.9561 257.269 37.3468 245.15 31.5184C233.358 26.0138 220.419 23.2615 206.335 23.2615C194.87 23.2615 184.388 25.8519 174.889 31.0327C165.39 36.5373 156.382 42.5275 147.866 49.0035C139.677 55.4795 131.816 61.3079 124.282 66.4887C117.076 71.9933 110.033 74.7456 103.155 74.7456C98.1786 74.7456 93.9835 73.8965 90.5693 72.1981C100.213 84.9125 117.066 90.9301 133.215 86.3688L154.801 80.2723C170.585 75.8142 186.2 80.123 199.182 91.6408C212.163 103.159 217.962 110.479 222.385 116.308C226.807 122.136 237.47 137.401 237.47 137.401C243.062 146.031 247.443 152.134 252.028 158.286Z" fill="#475569"/>
<path d="M209.462 107.888L195.881 94.1772C185.371 83.5656 169.988 79.5412 155.695 83.664L134.289 89.8388C105.356 96.4194 85.1905 76.114 77.0948 55.0968C74.821 49.5215 72.8719 43.4543 71.2477 36.8951C69.6235 30.6639 67.3497 24.7607 64.4261 19.1854C61.5025 13.6102 57.4421 9.01876 52.2446 5.41123C47.372 1.8037 40.388 -6.10352e-05 31.2925 -6.10352e-05C24.7957 -6.10352e-05 19.4359 1.47575 15.2129 4.42736C11.3149 7.37898 8.2289 10.9865 5.95502 15.2499C3.68114 19.8414 2.21937 24.9247 1.56969 30.5C0.59517 36.0752 0.10791 41.6505 0.10791 47.2258C0.10791 60.672 3.19388 74.2822 9.36583 88.0565C15.5378 101.831 23.6588 114.129 33.7288 124.952C44.1236 136.102 55.8178 145.121 68.8114 152.008C82.1298 159.223 95.6107 162.831 109.254 162.831C118.674 162.831 126.633 161.355 133.13 158.403C139.626 155.78 145.149 152.336 149.696 148.073C154.244 144.137 158.305 139.71 161.878 134.79C165.451 129.871 168.862 125.28 172.11 121.016C175.684 117.081 179.582 113.637 183.805 110.686C188.027 108.062 193.062 106.75 198.91 106.75C202.763 106.75 206.28 107.129 209.462 107.888Z" fill="#475569"/>
</svg>
