<svg width="643" height="721" viewBox="0 0 643 721" fill="none" xmlns="http://www.w3.org/2000/svg">
<g style="mix-blend-mode:soft-light" opacity="0.2">
<path d="M-79.6396 395.161C-96.9774 402.981 -115.607 401.14 -135.528 389.639C-148.58 382.103 -157.683 373.281 -162.838 363.173C-169.066 353.337 -172.268 343.019 -172.444 332.219C-173.307 321.022 -171.681 309.48 -167.565 297.592C-163.836 286.373 -158.883 275.414 -152.706 264.716C-136.493 236.634 -115.556 213.061 -89.8954 193.999C-64.922 174.54 -37.3712 160.135 -7.24285 150.785C22.4994 142.103 53.5533 139.081 85.9186 141.72C117.211 144.631 147.626 154.614 177.165 171.667C201.207 185.549 220.101 203.589 233.846 225.789C247.204 248.657 258.953 271.933 269.093 295.617C278.546 318.905 288.084 340.459 297.707 360.279C306.257 380.371 317.745 394.581 332.17 402.91C342.606 408.935 352.416 412.261 361.601 412.888C326.218 427.465 283.702 419.487 255.271 390.514L217.271 351.79C189.484 323.472 151.599 313.463 110.643 321.528C69.687 329.594 48.7977 337.689 32.5749 344.37C16.3521 351.051 -24.2092 369.661 -24.2092 369.661C-46.2239 380.711 -62.6878 388.009 -79.6396 395.161Z" fill="white"/>
<path d="M68.1475 343.955L113.385 331.845C148.397 322.473 185.748 332.817 210.959 358.868L248.719 397.885C301.887 446.929 368.995 429.06 411.469 394.983C423.003 386.098 434.444 375.788 445.794 364.052C456.747 353.003 468.677 343.432 481.583 335.339C494.49 327.246 508.609 322.596 523.943 321.391C538.59 319.789 555.52 324.534 574.731 335.626C588.454 343.549 597.993 353.171 603.349 364.493C608.019 375.419 610.182 386.726 609.838 398.414C609.098 410.788 606.048 423.2 600.69 435.651C596.017 448.498 590.315 460.75 583.584 472.409C567.351 500.526 544.401 525.223 514.735 546.5C485.069 567.776 453.068 583.59 418.732 593.941C383.314 604.581 347.725 609.179 311.965 607.735C275.123 606.581 242.293 597.685 213.476 581.047C193.578 569.559 178.549 556.768 168.39 542.673C157.835 529.264 150.328 515.329 145.87 500.868C141.015 487.092 137.784 472.882 136.176 458.238C134.567 443.594 132.906 429.833 131.192 416.957C128.396 404.37 124.32 392.415 118.963 381.093C113.211 370.457 104.16 361.574 91.8096 354.443C83.6702 349.744 75.7828 346.248 68.1475 343.955Z" fill="white"/>
</g>
</svg>
