<svg width="806" height="665" viewBox="0 0 806 665" fill="none" xmlns="http://www.w3.org/2000/svg">
<g style="mix-blend-mode:hard-light" opacity="0.2">
<g filter="url(#filter0_f_639_3152)">
<path d="M980.17 401.917C1143.85 331.782 1183.89 164.225 1069.6 27.6692L1021.85 -29.376C907.566 -165.932 682.23 -219.777 518.552 -149.641L342.046 -74.0092C178.368 -3.87381 138.33 163.683 252.619 300.239L300.362 357.284C414.65 493.84 639.986 547.685 803.664 477.549L980.17 401.917Z" fill="url(#paint0_radial_639_3152)"/>
</g>
<g style="mix-blend-mode:color-dodge" filter="url(#filter1_f_639_3152)">
<path d="M602.171 535.343C730.894 569.827 885.329 502.064 947.112 383.989L1023.72 237.578C1085.5 119.503 1031.24 -4.17047 902.515 -38.6548L568.132 -128.235C439.409 -162.719 284.974 -94.956 223.191 23.1187L146.581 169.53C84.7987 287.605 139.065 411.278 267.787 445.763L602.171 535.343Z" fill="url(#paint1_radial_639_3152)"/>
</g>
<g style="mix-blend-mode:color-dodge" filter="url(#filter2_f_639_3152)">
<path d="M884.021 436.458C1022.93 473.672 1189.6 400.544 1256.27 273.122C1322.94 145.7 1264.38 12.2356 1125.47 -24.9787L984.972 -62.6172C846.058 -99.8316 679.397 -26.7037 612.723 100.718C546.05 228.141 604.611 361.605 743.524 398.819L884.021 436.458Z" fill="url(#paint2_radial_639_3152)"/>
</g>
</g>
<defs>
<filter id="filter0_f_639_3152" x="52.3657" y="-315.528" width="1217.48" height="958.965" filterUnits="userSpaceOnUse" color-interpolation-filters="sRGB">
<feFlood flood-opacity="0" result="BackgroundImageFix"/>
<feBlend mode="normal" in="SourceGraphic" in2="BackgroundImageFix" result="shape"/>
<feGaussianBlur stdDeviation="67.5618" result="effect1_foregroundBlur_639_3152"/>
</filter>
<filter id="filter1_f_639_3152" x="0.419418" y="-257.87" width="1169.46" height="922.848" filterUnits="userSpaceOnUse" color-interpolation-filters="sRGB">
<feFlood flood-opacity="0" result="BackgroundImageFix"/>
<feBlend mode="normal" in="SourceGraphic" in2="BackgroundImageFix" result="shape"/>
<feGaussianBlur stdDeviation="60.323" result="effect1_foregroundBlur_639_3152"/>
</filter>
<filter id="filter2_f_639_3152" x="464.541" y="-192.964" width="939.91" height="759.769" filterUnits="userSpaceOnUse" color-interpolation-filters="sRGB">
<feFlood flood-opacity="0" result="BackgroundImageFix"/>
<feBlend mode="normal" in="SourceGraphic" in2="BackgroundImageFix" result="shape"/>
<feGaussianBlur stdDeviation="60.323" result="effect1_foregroundBlur_639_3152"/>
</filter>
<radialGradient id="paint0_radial_639_3152" cx="0" cy="0" r="1" gradientUnits="userSpaceOnUse" gradientTransform="translate(611.009 222.936) rotate(-154.057) scale(430.794 365.238)">
<stop stop-color="#7A5AF8"/>
<stop offset="1" stop-color="#E888F8" stop-opacity="0"/>
</radialGradient>
<radialGradient id="paint1_radial_639_3152" cx="0" cy="0" r="1" gradientUnits="userSpaceOnUse" gradientTransform="translate(812.134 159.652) rotate(160.173) scale(377.238 300.148)">
<stop stop-color="#F257A0"/>
<stop offset="1" stop-color="#484EB7" stop-opacity="0"/>
<stop offset="1" stop-color="#D03F92" stop-opacity="0"/>
</radialGradient>
<radialGradient id="paint2_radial_639_3152" cx="0" cy="0" r="1" gradientUnits="userSpaceOnUse" gradientTransform="translate(841.535 266.275) rotate(-144.112) scale(282.425 268.833)">
<stop stop-color="#444CE4"/>
<stop offset="1" stop-color="#037E82"/>
</radialGradient>
</defs>
</svg>
