<svg width="177" height="307" viewBox="0 0 177 307" fill="none" xmlns="http://www.w3.org/2000/svg">
<path d="M107.783 305.228C85.4179 305.228 68.5494 289.577 57.3222 262.927C46.0932 236.272 40.3789 198.371 40.3789 153.228C40.3789 108.303 46.0934 70.4024 57.322 43.6937C68.5476 16.992 85.415 1.22802 107.783 1.22802C130.245 1.22803 147.161 16.9894 158.412 43.693C169.664 70.4021 175.379 108.303 175.379 153.228C175.379 198.371 169.665 236.273 158.411 262.928C147.159 289.58 130.242 305.228 107.783 305.228ZM107.783 223.132C113.18 223.132 117.464 222.115 120.891 219.851C124.313 217.59 126.992 214.011 129.04 208.674C133.162 197.931 134.611 180.388 134.611 153.228C134.611 126.068 133.162 108.525 129.04 97.7819C126.992 92.4447 124.313 88.8657 120.891 86.6047C117.464 84.3405 113.18 83.3237 107.783 83.3237C102.436 83.3237 98.1884 84.3399 94.7888 86.6029C91.3933 88.863 88.7311 92.4418 86.6946 97.7801C82.5957 108.525 81.1466 126.069 81.1466 153.228C81.1466 180.387 82.5957 197.932 86.6946 208.676C88.7311 214.014 91.3933 217.593 94.7888 219.853C98.1884 222.116 102.436 223.132 107.783 223.132Z" stroke="url(#paint0_linear_1350_19756)" stroke-width="2"/>
<path d="M94.783 305.228C72.4179 305.228 55.5494 289.577 44.3222 262.927C33.0932 236.272 27.3789 198.371 27.3789 153.228C27.3789 108.303 33.0934 70.4024 44.322 43.6937C55.5476 16.992 72.415 1.22802 94.783 1.22803C117.245 1.22803 134.161 16.9894 145.412 43.693C156.664 70.4021 162.379 108.303 162.379 153.228C162.379 198.371 156.665 236.273 145.411 262.928C134.159 289.58 117.242 305.228 94.783 305.228ZM94.783 223.132C100.18 223.132 104.464 222.115 107.891 219.851C111.313 217.59 113.992 214.011 116.04 208.674C120.162 197.931 121.611 180.388 121.611 153.228C121.611 126.068 120.162 108.525 116.04 97.7819C113.992 92.4447 111.313 88.8657 107.891 86.6048C104.464 84.3405 100.18 83.3237 94.783 83.3237C89.4358 83.3237 85.1884 84.3399 81.7888 86.6029C78.3933 88.863 75.7311 92.4418 73.6946 97.7801C69.5957 108.525 68.1466 126.069 68.1466 153.228C68.1466 180.387 69.5957 197.932 73.6946 208.676C75.7311 214.014 78.3933 217.593 81.7888 219.853C85.1884 222.116 89.4358 223.132 94.783 223.132Z" stroke="url(#paint1_linear_1350_19756)" stroke-width="2"/>
<path d="M81.783 305.228C59.4179 305.228 42.5494 289.577 31.3222 262.927C20.0932 236.272 14.3789 198.371 14.3789 153.228C14.3789 108.303 20.0934 70.4024 31.322 43.6937C42.5476 16.992 59.415 1.22802 81.783 1.22803C104.245 1.22803 121.161 16.9894 132.412 43.693C143.664 70.4021 149.379 108.303 149.379 153.228C149.379 198.371 143.665 236.273 132.411 262.928C121.159 289.58 104.242 305.228 81.783 305.228ZM81.783 223.132C87.1795 223.132 91.464 222.115 94.891 219.851C98.3129 217.59 100.992 214.011 103.04 208.674C107.162 197.931 108.611 180.388 108.611 153.228C108.611 126.068 107.162 108.525 103.04 97.7819C100.992 92.4447 98.3129 88.8657 94.891 86.6048C91.464 84.3405 87.1795 83.3237 81.783 83.3237C76.4358 83.3237 72.1884 84.3399 68.7888 86.6029C65.3933 88.863 62.7311 92.4418 60.6946 97.7801C56.5957 108.525 55.1466 126.069 55.1466 153.228C55.1466 180.387 56.5957 197.932 60.6946 208.676C62.7311 214.014 65.3933 217.593 68.7888 219.853C72.1884 222.116 76.4358 223.132 81.783 223.132Z" stroke="url(#paint2_linear_1350_19756)" stroke-width="2"/>
<path d="M68.783 305.228C46.4179 305.228 29.5494 289.577 18.3222 262.927C7.09323 236.272 1.37891 198.371 1.37891 153.228C1.37891 108.303 7.09341 70.4024 18.322 43.6937C29.5476 16.992 46.415 1.22802 68.783 1.22802C91.2449 1.22803 108.161 16.9894 119.412 43.693C130.664 70.4021 136.379 108.303 136.379 153.228C136.379 198.371 130.665 236.273 119.411 262.928C108.159 289.58 91.242 305.228 68.783 305.228ZM68.783 223.132C74.1795 223.132 78.464 222.115 81.891 219.851C85.3129 217.59 87.9922 214.011 90.04 208.674C94.162 197.931 95.6112 180.388 95.6112 153.228C95.6112 126.068 94.162 108.525 90.04 97.7819C87.9922 92.4447 85.3129 88.8657 81.891 86.6047C78.464 84.3405 74.1795 83.3237 68.783 83.3237C63.4358 83.3237 59.1884 84.3399 55.7888 86.6029C52.3933 88.863 49.7311 92.4418 47.6946 97.7801C43.5957 108.525 42.1466 126.069 42.1466 153.228C42.1466 180.387 43.5957 197.932 47.6946 208.676C49.7311 214.014 52.3933 217.593 55.7888 219.853C59.1884 222.116 63.4358 223.132 68.783 223.132Z" stroke="url(#paint3_linear_1350_19756)" stroke-width="2"/>
<defs>
<linearGradient id="paint0_linear_1350_19756" x1="174.379" y1="153.228" x2="41.3789" y2="153.228" gradientUnits="userSpaceOnUse">
<stop stop-color="white"/>
<stop offset="1" stop-color="#13B0EA" stop-opacity="0"/>
</linearGradient>
<linearGradient id="paint1_linear_1350_19756" x1="161.379" y1="153.228" x2="28.3789" y2="153.228" gradientUnits="userSpaceOnUse">
<stop stop-color="white"/>
<stop offset="1" stop-color="#13B0EA" stop-opacity="0"/>
</linearGradient>
<linearGradient id="paint2_linear_1350_19756" x1="148.379" y1="153.228" x2="15.3789" y2="153.228" gradientUnits="userSpaceOnUse">
<stop stop-color="white"/>
<stop offset="1" stop-color="#13B0EA" stop-opacity="0"/>
</linearGradient>
<linearGradient id="paint3_linear_1350_19756" x1="135.379" y1="153.228" x2="2.37891" y2="153.228" gradientUnits="userSpaceOnUse">
<stop stop-color="white"/>
<stop offset="1" stop-color="#13B0EA" stop-opacity="0"/>
</linearGradient>
</defs>
</svg>
